<?xml version="1.0" encoding="utf-8" standalone="no"?>
<!DOCTYPE svg PUBLIC "-//W3C//DTD SVG 1.1//EN"
  "http://www.w3.org/Graphics/SVG/1.1/DTD/svg11.dtd">
<svg xmlns:xlink="http://www.w3.org/1999/xlink" width="460.8pt" height="345.6pt" viewBox="0 0 460.8 345.6" xmlns="http://www.w3.org/2000/svg" version="1.1">
 <metadata>
  <rdf:RDF xmlns:dc="http://purl.org/dc/elements/1.1/" xmlns:cc="http://creativecommons.org/ns#" xmlns:rdf="http://www.w3.org/1999/02/22-rdf-syntax-ns#">
   <cc:Work>
    <dc:type rdf:resource="http://purl.org/dc/dcmitype/StillImage"/>
    <dc:date>2023-01-26T16:49:51.703173</dc:date>
    <dc:format>image/svg+xml</dc:format>
    <dc:creator>
     <cc:Agent>
      <dc:title>Matplotlib v3.6.2, https://matplotlib.org/</dc:title>
     </cc:Agent>
    </dc:creator>
   </cc:Work>
  </rdf:RDF>
 </metadata>
 <defs>
  <style type="text/css">*{stroke-linejoin: round; stroke-linecap: butt}</style>
 </defs>
 <g id="figure_1">
  <g id="patch_1">
   <path d="M 0 345.6 
L 460.8 345.6 
L 460.8 0 
L 0 0 
z
" style="fill: #ffffff"/>
  </g>
  <g id="axes_1">
   <g id="patch_2">
    <path d="M 57.6 162.432 
L 414.72 162.432 
L 414.72 41.472 
L 57.6 41.472 
z
" style="fill: #eaeaf2"/>
   </g>
   <g id="matplotlib.axis_1">
    <g id="xtick_1">
     <g id="line2d_1">
      <path d="M 68.547859 162.432 
L 68.547859 41.472 
" clip-path="url(#p9223fb1570)" style="fill: none; stroke: #ffffff; stroke-width: 0.8; stroke-linecap: round"/>
     </g>
    </g>
    <g id="xtick_2">
     <g id="line2d_2">
      <path d="M 112.802887 162.432 
L 112.802887 41.472 
" clip-path="url(#p9223fb1570)" style="fill: none; stroke: #ffffff; stroke-width: 0.8; stroke-linecap: round"/>
     </g>
    </g>
    <g id="xtick_3">
     <g id="line2d_3">
      <path d="M 157.057915 162.432 
L 157.057915 41.472 
" clip-path="url(#p9223fb1570)" style="fill: none; stroke: #ffffff; stroke-width: 0.8; stroke-linecap: round"/>
     </g>
    </g>
    <g id="xtick_4">
     <g id="line2d_4">
      <path d="M 201.312942 162.432 
L 201.312942 41.472 
" clip-path="url(#p9223fb1570)" style="fill: none; stroke: #ffffff; stroke-width: 0.8; stroke-linecap: round"/>
     </g>
    </g>
    <g id="xtick_5">
     <g id="line2d_5">
      <path d="M 245.56797 162.432 
L 245.56797 41.472 
" clip-path="url(#p9223fb1570)" style="fill: none; stroke: #ffffff; stroke-width: 0.8; stroke-linecap: round"/>
     </g>
    </g>
    <g id="xtick_6">
     <g id="line2d_6">
      <path d="M 289.822998 162.432 
L 289.822998 41.472 
" clip-path="url(#p9223fb1570)" style="fill: none; stroke: #ffffff; stroke-width: 0.8; stroke-linecap: round"/>
     </g>
    </g>
    <g id="xtick_7">
     <g id="line2d_7">
      <path d="M 334.078026 162.432 
L 334.078026 41.472 
" clip-path="url(#p9223fb1570)" style="fill: none; stroke: #ffffff; stroke-width: 0.8; stroke-linecap: round"/>
     </g>
    </g>
    <g id="xtick_8">
     <g id="line2d_8">
      <path d="M 378.333053 162.432 
L 378.333053 41.472 
" clip-path="url(#p9223fb1570)" style="fill: none; stroke: #ffffff; stroke-width: 0.8; stroke-linecap: round"/>
     </g>
    </g>
   </g>
   <g id="matplotlib.axis_2">
    <g id="ytick_1">
     <g id="line2d_9">
      <path d="M 57.6 162.432 
L 414.72 162.432 
" clip-path="url(#p9223fb1570)" style="fill: none; stroke: #ffffff; stroke-width: 0.8; stroke-linecap: round"/>
     </g>
     <g id="text_1">
      <!-- 0 -->
      <g style="fill: #262626" transform="translate(44.2375 166.231219) scale(0.1 -0.1)">
       <defs>
        <path id="DejaVuSans-30" d="M 2034 4250 
Q 1547 4250 1301 3770 
Q 1056 3291 1056 2328 
Q 1056 1369 1301 889 
Q 1547 409 2034 409 
Q 2525 409 2770 889 
Q 3016 1369 3016 2328 
Q 3016 3291 2770 3770 
Q 2525 4250 2034 4250 
z
M 2034 4750 
Q 2819 4750 3233 4129 
Q 3647 3509 3647 2328 
Q 3647 1150 3233 529 
Q 2819 -91 2034 -91 
Q 1250 -91 836 529 
Q 422 1150 422 2328 
Q 422 3509 836 4129 
Q 1250 4750 2034 4750 
z
" transform="scale(0.015625)"/>
       </defs>
       <use xlink:href="#DejaVuSans-30"/>
      </g>
     </g>
    </g>
    <g id="ytick_2">
     <g id="line2d_10">
      <path d="M 57.6 138.921796 
L 414.72 138.921796 
" clip-path="url(#p9223fb1570)" style="fill: none; stroke: #ffffff; stroke-width: 0.8; stroke-linecap: round"/>
     </g>
     <g id="text_2">
      <!-- 10 -->
      <g style="fill: #262626" transform="translate(37.875 142.721015) scale(0.1 -0.1)">
       <defs>
        <path id="DejaVuSans-31" d="M 794 531 
L 1825 531 
L 1825 4091 
L 703 3866 
L 703 4441 
L 1819 4666 
L 2450 4666 
L 2450 531 
L 3481 531 
L 3481 0 
L 794 0 
L 794 531 
z
" transform="scale(0.015625)"/>
       </defs>
       <use xlink:href="#DejaVuSans-31"/>
       <use xlink:href="#DejaVuSans-30" x="63.623047"/>
      </g>
     </g>
    </g>
    <g id="ytick_3">
     <g id="line2d_11">
      <path d="M 57.6 115.411592 
L 414.72 115.411592 
" clip-path="url(#p9223fb1570)" style="fill: none; stroke: #ffffff; stroke-width: 0.8; stroke-linecap: round"/>
     </g>
     <g id="text_3">
      <!-- 20 -->
      <g style="fill: #262626" transform="translate(37.875 119.210811) scale(0.1 -0.1)">
       <defs>
        <path id="DejaVuSans-32" d="M 1228 531 
L 3431 531 
L 3431 0 
L 469 0 
L 469 531 
Q 828 903 1448 1529 
Q 2069 2156 2228 2338 
Q 2531 2678 2651 2914 
Q 2772 3150 2772 3378 
Q 2772 3750 2511 3984 
Q 2250 4219 1831 4219 
Q 1534 4219 1204 4116 
Q 875 4013 500 3803 
L 500 4441 
Q 881 4594 1212 4672 
Q 1544 4750 1819 4750 
Q 2544 4750 2975 4387 
Q 3406 4025 3406 3419 
Q 3406 3131 3298 2873 
Q 3191 2616 2906 2266 
Q 2828 2175 2409 1742 
Q 1991 1309 1228 531 
z
" transform="scale(0.015625)"/>
       </defs>
       <use xlink:href="#DejaVuSans-32"/>
       <use xlink:href="#DejaVuSans-30" x="63.623047"/>
      </g>
     </g>
    </g>
    <g id="ytick_4">
     <g id="line2d_12">
      <path d="M 57.6 91.901388 
L 414.72 91.901388 
" clip-path="url(#p9223fb1570)" style="fill: none; stroke: #ffffff; stroke-width: 0.8; stroke-linecap: round"/>
     </g>
     <g id="text_4">
      <!-- 30 -->
      <g style="fill: #262626" transform="translate(37.875 95.700607) scale(0.1 -0.1)">
       <defs>
        <path id="DejaVuSans-33" d="M 2597 2516 
Q 3050 2419 3304 2112 
Q 3559 1806 3559 1356 
Q 3559 666 3084 287 
Q 2609 -91 1734 -91 
Q 1441 -91 1130 -33 
Q 819 25 488 141 
L 488 750 
Q 750 597 1062 519 
Q 1375 441 1716 441 
Q 2309 441 2620 675 
Q 2931 909 2931 1356 
Q 2931 1769 2642 2001 
Q 2353 2234 1838 2234 
L 1294 2234 
L 1294 2753 
L 1863 2753 
Q 2328 2753 2575 2939 
Q 2822 3125 2822 3475 
Q 2822 3834 2567 4026 
Q 2313 4219 1838 4219 
Q 1578 4219 1281 4162 
Q 984 4106 628 3988 
L 628 4550 
Q 988 4650 1302 4700 
Q 1616 4750 1894 4750 
Q 2613 4750 3031 4423 
Q 3450 4097 3450 3541 
Q 3450 3153 3228 2886 
Q 3006 2619 2597 2516 
z
" transform="scale(0.015625)"/>
       </defs>
       <use xlink:href="#DejaVuSans-33"/>
       <use xlink:href="#DejaVuSans-30" x="63.623047"/>
      </g>
     </g>
    </g>
    <g id="ytick_5">
     <g id="line2d_13">
      <path d="M 57.6 68.391184 
L 414.72 68.391184 
" clip-path="url(#p9223fb1570)" style="fill: none; stroke: #ffffff; stroke-width: 0.8; stroke-linecap: round"/>
     </g>
     <g id="text_5">
      <!-- 40 -->
      <g style="fill: #262626" transform="translate(37.875 72.190402) scale(0.1 -0.1)">
       <defs>
        <path id="DejaVuSans-34" d="M 2419 4116 
L 825 1625 
L 2419 1625 
L 2419 4116 
z
M 2253 4666 
L 3047 4666 
L 3047 1625 
L 3713 1625 
L 3713 1100 
L 3047 1100 
L 3047 0 
L 2419 0 
L 2419 1100 
L 313 1100 
L 313 1709 
L 2253 4666 
z
" transform="scale(0.015625)"/>
       </defs>
       <use xlink:href="#DejaVuSans-34"/>
       <use xlink:href="#DejaVuSans-30" x="63.623047"/>
      </g>
     </g>
    </g>
    <g id="ytick_6">
     <g id="line2d_14">
      <path d="M 57.6 44.88098 
L 414.72 44.88098 
" clip-path="url(#p9223fb1570)" style="fill: none; stroke: #ffffff; stroke-width: 0.8; stroke-linecap: round"/>
     </g>
     <g id="text_6">
      <!-- 50 -->
      <g style="fill: #262626" transform="translate(37.875 48.680198) scale(0.1 -0.1)">
       <defs>
        <path id="DejaVuSans-35" d="M 691 4666 
L 3169 4666 
L 3169 4134 
L 1269 4134 
L 1269 2991 
Q 1406 3038 1543 3061 
Q 1681 3084 1819 3084 
Q 2600 3084 3056 2656 
Q 3513 2228 3513 1497 
Q 3513 744 3044 326 
Q 2575 -91 1722 -91 
Q 1428 -91 1123 -41 
Q 819 9 494 109 
L 494 744 
Q 775 591 1075 516 
Q 1375 441 1709 441 
Q 2250 441 2565 725 
Q 2881 1009 2881 1497 
Q 2881 1984 2565 2268 
Q 2250 2553 1709 2553 
Q 1456 2553 1204 2497 
Q 953 2441 691 2322 
L 691 4666 
z
" transform="scale(0.015625)"/>
       </defs>
       <use xlink:href="#DejaVuSans-35"/>
       <use xlink:href="#DejaVuSans-30" x="63.623047"/>
      </g>
     </g>
    </g>
   </g>
   <g id="patch_3">
    <path d="M 73.832727 162.432 
L 77.079273 162.432 
L 77.079273 160.08098 
L 73.832727 160.08098 
z
" clip-path="url(#p9223fb1570)" style="fill: #1f77b4; stroke: #ffffff; stroke-linejoin: miter"/>
   </g>
   <g id="patch_4">
    <path d="M 77.079273 162.432 
L 80.325818 162.432 
L 80.325818 162.432 
L 77.079273 162.432 
z
" clip-path="url(#p9223fb1570)" style="fill: #1f77b4; stroke: #ffffff; stroke-linejoin: miter"/>
   </g>
   <g id="patch_5">
    <path d="M 80.325818 162.432 
L 83.572364 162.432 
L 83.572364 162.432 
L 80.325818 162.432 
z
" clip-path="url(#p9223fb1570)" style="fill: #1f77b4; stroke: #ffffff; stroke-linejoin: miter"/>
   </g>
   <g id="patch_6">
    <path d="M 83.572364 162.432 
L 86.818909 162.432 
L 86.818909 162.432 
L 83.572364 162.432 
z
" clip-path="url(#p9223fb1570)" style="fill: #1f77b4; stroke: #ffffff; stroke-linejoin: miter"/>
   </g>
   <g id="patch_7">
    <path d="M 86.818909 162.432 
L 90.065455 162.432 
L 90.065455 162.432 
L 86.818909 162.432 
z
" clip-path="url(#p9223fb1570)" style="fill: #1f77b4; stroke: #ffffff; stroke-linejoin: miter"/>
   </g>
   <g id="patch_8">
    <path d="M 90.065455 162.432 
L 93.312 162.432 
L 93.312 160.08098 
L 90.065455 160.08098 
z
" clip-path="url(#p9223fb1570)" style="fill: #1f77b4; stroke: #ffffff; stroke-linejoin: miter"/>
   </g>
   <g id="patch_9">
    <path d="M 93.312 162.432 
L 96.558545 162.432 
L 96.558545 160.08098 
L 93.312 160.08098 
z
" clip-path="url(#p9223fb1570)" style="fill: #1f77b4; stroke: #ffffff; stroke-linejoin: miter"/>
   </g>
   <g id="patch_10">
    <path d="M 96.558545 162.432 
L 99.805091 162.432 
L 99.805091 162.432 
L 96.558545 162.432 
z
" clip-path="url(#p9223fb1570)" style="fill: #1f77b4; stroke: #ffffff; stroke-linejoin: miter"/>
   </g>
   <g id="patch_11">
    <path d="M 99.805091 162.432 
L 103.051636 162.432 
L 103.051636 160.08098 
L 99.805091 160.08098 
z
" clip-path="url(#p9223fb1570)" style="fill: #1f77b4; stroke: #ffffff; stroke-linejoin: miter"/>
   </g>
   <g id="patch_12">
    <path d="M 103.051636 162.432 
L 106.298182 162.432 
L 106.298182 160.08098 
L 103.051636 160.08098 
z
" clip-path="url(#p9223fb1570)" style="fill: #1f77b4; stroke: #ffffff; stroke-linejoin: miter"/>
   </g>
   <g id="patch_13">
    <path d="M 106.298182 162.432 
L 109.544727 162.432 
L 109.544727 162.432 
L 106.298182 162.432 
z
" clip-path="url(#p9223fb1570)" style="fill: #1f77b4; stroke: #ffffff; stroke-linejoin: miter"/>
   </g>
   <g id="patch_14">
    <path d="M 109.544727 162.432 
L 112.791273 162.432 
L 112.791273 160.08098 
L 109.544727 160.08098 
z
" clip-path="url(#p9223fb1570)" style="fill: #1f77b4; stroke: #ffffff; stroke-linejoin: miter"/>
   </g>
   <g id="patch_15">
    <path d="M 112.791273 162.432 
L 116.037818 162.432 
L 116.037818 162.432 
L 112.791273 162.432 
z
" clip-path="url(#p9223fb1570)" style="fill: #1f77b4; stroke: #ffffff; stroke-linejoin: miter"/>
   </g>
   <g id="patch_16">
    <path d="M 116.037818 162.432 
L 119.284364 162.432 
L 119.284364 160.08098 
L 116.037818 160.08098 
z
" clip-path="url(#p9223fb1570)" style="fill: #1f77b4; stroke: #ffffff; stroke-linejoin: miter"/>
   </g>
   <g id="patch_17">
    <path d="M 119.284364 162.432 
L 122.530909 162.432 
L 122.530909 157.729959 
L 119.284364 157.729959 
z
" clip-path="url(#p9223fb1570)" style="fill: #1f77b4; stroke: #ffffff; stroke-linejoin: miter"/>
   </g>
   <g id="patch_18">
    <path d="M 122.530909 162.432 
L 125.777455 162.432 
L 125.777455 157.729959 
L 122.530909 157.729959 
z
" clip-path="url(#p9223fb1570)" style="fill: #1f77b4; stroke: #ffffff; stroke-linejoin: miter"/>
   </g>
   <g id="patch_19">
    <path d="M 125.777455 162.432 
L 129.024 162.432 
L 129.024 160.08098 
L 125.777455 160.08098 
z
" clip-path="url(#p9223fb1570)" style="fill: #1f77b4; stroke: #ffffff; stroke-linejoin: miter"/>
   </g>
   <g id="patch_20">
    <path d="M 129.024 162.432 
L 132.270545 162.432 
L 132.270545 162.432 
L 129.024 162.432 
z
" clip-path="url(#p9223fb1570)" style="fill: #1f77b4; stroke: #ffffff; stroke-linejoin: miter"/>
   </g>
   <g id="patch_21">
    <path d="M 132.270545 162.432 
L 135.517091 162.432 
L 135.517091 160.08098 
L 132.270545 160.08098 
z
" clip-path="url(#p9223fb1570)" style="fill: #1f77b4; stroke: #ffffff; stroke-linejoin: miter"/>
   </g>
   <g id="patch_22">
    <path d="M 135.517091 162.432 
L 138.763636 162.432 
L 138.763636 162.432 
L 135.517091 162.432 
z
" clip-path="url(#p9223fb1570)" style="fill: #1f77b4; stroke: #ffffff; stroke-linejoin: miter"/>
   </g>
   <g id="patch_23">
    <path d="M 138.763636 162.432 
L 142.010182 162.432 
L 142.010182 160.08098 
L 138.763636 160.08098 
z
" clip-path="url(#p9223fb1570)" style="fill: #1f77b4; stroke: #ffffff; stroke-linejoin: miter"/>
   </g>
   <g id="patch_24">
    <path d="M 142.010182 162.432 
L 145.256727 162.432 
L 145.256727 160.08098 
L 142.010182 160.08098 
z
" clip-path="url(#p9223fb1570)" style="fill: #1f77b4; stroke: #ffffff; stroke-linejoin: miter"/>
   </g>
   <g id="patch_25">
    <path d="M 145.256727 162.432 
L 148.503273 162.432 
L 148.503273 160.08098 
L 145.256727 160.08098 
z
" clip-path="url(#p9223fb1570)" style="fill: #1f77b4; stroke: #ffffff; stroke-linejoin: miter"/>
   </g>
   <g id="patch_26">
    <path d="M 148.503273 162.432 
L 151.749818 162.432 
L 151.749818 160.08098 
L 148.503273 160.08098 
z
" clip-path="url(#p9223fb1570)" style="fill: #1f77b4; stroke: #ffffff; stroke-linejoin: miter"/>
   </g>
   <g id="patch_27">
    <path d="M 151.749818 162.432 
L 154.996364 162.432 
L 154.996364 160.08098 
L 151.749818 160.08098 
z
" clip-path="url(#p9223fb1570)" style="fill: #1f77b4; stroke: #ffffff; stroke-linejoin: miter"/>
   </g>
   <g id="patch_28">
    <path d="M 154.996364 162.432 
L 158.242909 162.432 
L 158.242909 155.378939 
L 154.996364 155.378939 
z
" clip-path="url(#p9223fb1570)" style="fill: #1f77b4; stroke: #ffffff; stroke-linejoin: miter"/>
   </g>
   <g id="patch_29">
    <path d="M 158.242909 162.432 
L 161.489455 162.432 
L 161.489455 157.729959 
L 158.242909 157.729959 
z
" clip-path="url(#p9223fb1570)" style="fill: #1f77b4; stroke: #ffffff; stroke-linejoin: miter"/>
   </g>
   <g id="patch_30">
    <path d="M 161.489455 162.432 
L 164.736 162.432 
L 164.736 150.676898 
L 161.489455 150.676898 
z
" clip-path="url(#p9223fb1570)" style="fill: #1f77b4; stroke: #ffffff; stroke-linejoin: miter"/>
   </g>
   <g id="patch_31">
    <path d="M 164.736 162.432 
L 167.982545 162.432 
L 167.982545 148.325878 
L 164.736 148.325878 
z
" clip-path="url(#p9223fb1570)" style="fill: #1f77b4; stroke: #ffffff; stroke-linejoin: miter"/>
   </g>
   <g id="patch_32">
    <path d="M 167.982545 162.432 
L 171.229091 162.432 
L 171.229091 157.729959 
L 167.982545 157.729959 
z
" clip-path="url(#p9223fb1570)" style="fill: #1f77b4; stroke: #ffffff; stroke-linejoin: miter"/>
   </g>
   <g id="patch_33">
    <path d="M 171.229091 162.432 
L 174.475636 162.432 
L 174.475636 157.729959 
L 171.229091 157.729959 
z
" clip-path="url(#p9223fb1570)" style="fill: #1f77b4; stroke: #ffffff; stroke-linejoin: miter"/>
   </g>
   <g id="patch_34">
    <path d="M 174.475636 162.432 
L 177.722182 162.432 
L 177.722182 153.027918 
L 174.475636 153.027918 
z
" clip-path="url(#p9223fb1570)" style="fill: #1f77b4; stroke: #ffffff; stroke-linejoin: miter"/>
   </g>
   <g id="patch_35">
    <path d="M 177.722182 162.432 
L 180.968727 162.432 
L 180.968727 157.729959 
L 177.722182 157.729959 
z
" clip-path="url(#p9223fb1570)" style="fill: #1f77b4; stroke: #ffffff; stroke-linejoin: miter"/>
   </g>
   <g id="patch_36">
    <path d="M 180.968727 162.432 
L 184.215273 162.432 
L 184.215273 155.378939 
L 180.968727 155.378939 
z
" clip-path="url(#p9223fb1570)" style="fill: #1f77b4; stroke: #ffffff; stroke-linejoin: miter"/>
   </g>
   <g id="patch_37">
    <path d="M 184.215273 162.432 
L 187.461818 162.432 
L 187.461818 155.378939 
L 184.215273 155.378939 
z
" clip-path="url(#p9223fb1570)" style="fill: #1f77b4; stroke: #ffffff; stroke-linejoin: miter"/>
   </g>
   <g id="patch_38">
    <path d="M 187.461818 162.432 
L 190.708364 162.432 
L 190.708364 148.325878 
L 187.461818 148.325878 
z
" clip-path="url(#p9223fb1570)" style="fill: #1f77b4; stroke: #ffffff; stroke-linejoin: miter"/>
   </g>
   <g id="patch_39">
    <path d="M 190.708364 162.432 
L 193.954909 162.432 
L 193.954909 138.921796 
L 190.708364 138.921796 
z
" clip-path="url(#p9223fb1570)" style="fill: #1f77b4; stroke: #ffffff; stroke-linejoin: miter"/>
   </g>
   <g id="patch_40">
    <path d="M 193.954909 162.432 
L 197.201455 162.432 
L 197.201455 134.219755 
L 193.954909 134.219755 
z
" clip-path="url(#p9223fb1570)" style="fill: #1f77b4; stroke: #ffffff; stroke-linejoin: miter"/>
   </g>
   <g id="patch_41">
    <path d="M 197.201455 162.432 
L 200.448 162.432 
L 200.448 110.709551 
L 197.201455 110.709551 
z
" clip-path="url(#p9223fb1570)" style="fill: #1f77b4; stroke: #ffffff; stroke-linejoin: miter"/>
   </g>
   <g id="patch_42">
    <path d="M 200.448 162.432 
L 203.694545 162.432 
L 203.694545 129.517714 
L 200.448 129.517714 
z
" clip-path="url(#p9223fb1570)" style="fill: #1f77b4; stroke: #ffffff; stroke-linejoin: miter"/>
   </g>
   <g id="patch_43">
    <path d="M 203.694545 162.432 
L 206.941091 162.432 
L 206.941091 96.603429 
L 203.694545 96.603429 
z
" clip-path="url(#p9223fb1570)" style="fill: #1f77b4; stroke: #ffffff; stroke-linejoin: miter"/>
   </g>
   <g id="patch_44">
    <path d="M 206.941091 162.432 
L 210.187636 162.432 
L 210.187636 122.464653 
L 206.941091 122.464653 
z
" clip-path="url(#p9223fb1570)" style="fill: #1f77b4; stroke: #ffffff; stroke-linejoin: miter"/>
   </g>
   <g id="patch_45">
    <path d="M 210.187636 162.432 
L 213.434182 162.432 
L 213.434182 106.00751 
L 210.187636 106.00751 
z
" clip-path="url(#p9223fb1570)" style="fill: #1f77b4; stroke: #ffffff; stroke-linejoin: miter"/>
   </g>
   <g id="patch_46">
    <path d="M 213.434182 162.432 
L 216.680727 162.432 
L 216.680727 110.709551 
L 213.434182 110.709551 
z
" clip-path="url(#p9223fb1570)" style="fill: #1f77b4; stroke: #ffffff; stroke-linejoin: miter"/>
   </g>
   <g id="patch_47">
    <path d="M 216.680727 162.432 
L 219.927273 162.432 
L 219.927273 87.199347 
L 216.680727 87.199347 
z
" clip-path="url(#p9223fb1570)" style="fill: #1f77b4; stroke: #ffffff; stroke-linejoin: miter"/>
   </g>
   <g id="patch_48">
    <path d="M 219.927273 162.432 
L 223.173818 162.432 
L 223.173818 89.550367 
L 219.927273 89.550367 
z
" clip-path="url(#p9223fb1570)" style="fill: #1f77b4; stroke: #ffffff; stroke-linejoin: miter"/>
   </g>
   <g id="patch_49">
    <path d="M 223.173818 162.432 
L 226.420364 162.432 
L 226.420364 101.305469 
L 223.173818 101.305469 
z
" clip-path="url(#p9223fb1570)" style="fill: #1f77b4; stroke: #ffffff; stroke-linejoin: miter"/>
   </g>
   <g id="patch_50">
    <path d="M 226.420364 162.432 
L 229.666909 162.432 
L 229.666909 84.848327 
L 226.420364 84.848327 
z
" clip-path="url(#p9223fb1570)" style="fill: #1f77b4; stroke: #ffffff; stroke-linejoin: miter"/>
   </g>
   <g id="patch_51">
    <path d="M 229.666909 162.432 
L 232.913455 162.432 
L 232.913455 75.444245 
L 229.666909 75.444245 
z
" clip-path="url(#p9223fb1570)" style="fill: #1f77b4; stroke: #ffffff; stroke-linejoin: miter"/>
   </g>
   <g id="patch_52">
    <path d="M 232.913455 162.432 
L 236.16 162.432 
L 236.16 61.338122 
L 232.913455 61.338122 
z
" clip-path="url(#p9223fb1570)" style="fill: #1f77b4; stroke: #ffffff; stroke-linejoin: miter"/>
   </g>
   <g id="patch_53">
    <path d="M 236.16 162.432 
L 239.406545 162.432 
L 239.406545 47.232 
L 236.16 47.232 
z
" clip-path="url(#p9223fb1570)" style="fill: #1f77b4; stroke: #ffffff; stroke-linejoin: miter"/>
   </g>
   <g id="patch_54">
    <path d="M 239.406545 162.432 
L 242.653091 162.432 
L 242.653091 75.444245 
L 239.406545 75.444245 
z
" clip-path="url(#p9223fb1570)" style="fill: #1f77b4; stroke: #ffffff; stroke-linejoin: miter"/>
   </g>
   <g id="patch_55">
    <path d="M 242.653091 162.432 
L 245.899636 162.432 
L 245.899636 70.742204 
L 242.653091 70.742204 
z
" clip-path="url(#p9223fb1570)" style="fill: #1f77b4; stroke: #ffffff; stroke-linejoin: miter"/>
   </g>
   <g id="patch_56">
    <path d="M 245.899636 162.432 
L 249.146182 162.432 
L 249.146182 73.093224 
L 245.899636 73.093224 
z
" clip-path="url(#p9223fb1570)" style="fill: #1f77b4; stroke: #ffffff; stroke-linejoin: miter"/>
   </g>
   <g id="patch_57">
    <path d="M 249.146182 162.432 
L 252.392727 162.432 
L 252.392727 94.252408 
L 249.146182 94.252408 
z
" clip-path="url(#p9223fb1570)" style="fill: #1f77b4; stroke: #ffffff; stroke-linejoin: miter"/>
   </g>
   <g id="patch_58">
    <path d="M 252.392727 162.432 
L 255.639273 162.432 
L 255.639273 80.146286 
L 252.392727 80.146286 
z
" clip-path="url(#p9223fb1570)" style="fill: #1f77b4; stroke: #ffffff; stroke-linejoin: miter"/>
   </g>
   <g id="patch_59">
    <path d="M 255.639273 162.432 
L 258.885818 162.432 
L 258.885818 61.338122 
L 255.639273 61.338122 
z
" clip-path="url(#p9223fb1570)" style="fill: #1f77b4; stroke: #ffffff; stroke-linejoin: miter"/>
   </g>
   <g id="patch_60">
    <path d="M 258.885818 162.432 
L 262.132364 162.432 
L 262.132364 73.093224 
L 258.885818 73.093224 
z
" clip-path="url(#p9223fb1570)" style="fill: #1f77b4; stroke: #ffffff; stroke-linejoin: miter"/>
   </g>
   <g id="patch_61">
    <path d="M 262.132364 162.432 
L 265.378909 162.432 
L 265.378909 103.65649 
L 262.132364 103.65649 
z
" clip-path="url(#p9223fb1570)" style="fill: #1f77b4; stroke: #ffffff; stroke-linejoin: miter"/>
   </g>
   <g id="patch_62">
    <path d="M 265.378909 162.432 
L 268.625455 162.432 
L 268.625455 87.199347 
L 265.378909 87.199347 
z
" clip-path="url(#p9223fb1570)" style="fill: #1f77b4; stroke: #ffffff; stroke-linejoin: miter"/>
   </g>
   <g id="patch_63">
    <path d="M 268.625455 162.432 
L 271.872 162.432 
L 271.872 103.65649 
L 268.625455 103.65649 
z
" clip-path="url(#p9223fb1570)" style="fill: #1f77b4; stroke: #ffffff; stroke-linejoin: miter"/>
   </g>
   <g id="patch_64">
    <path d="M 271.872 162.432 
L 275.118545 162.432 
L 275.118545 101.305469 
L 271.872 101.305469 
z
" clip-path="url(#p9223fb1570)" style="fill: #1f77b4; stroke: #ffffff; stroke-linejoin: miter"/>
   </g>
   <g id="patch_65">
    <path d="M 275.118545 162.432 
L 278.365091 162.432 
L 278.365091 117.762612 
L 275.118545 117.762612 
z
" clip-path="url(#p9223fb1570)" style="fill: #1f77b4; stroke: #ffffff; stroke-linejoin: miter"/>
   </g>
   <g id="patch_66">
    <path d="M 278.365091 162.432 
L 281.611636 162.432 
L 281.611636 94.252408 
L 278.365091 94.252408 
z
" clip-path="url(#p9223fb1570)" style="fill: #1f77b4; stroke: #ffffff; stroke-linejoin: miter"/>
   </g>
   <g id="patch_67">
    <path d="M 281.611636 162.432 
L 284.858182 162.432 
L 284.858182 113.060571 
L 281.611636 113.060571 
z
" clip-path="url(#p9223fb1570)" style="fill: #1f77b4; stroke: #ffffff; stroke-linejoin: miter"/>
   </g>
   <g id="patch_68">
    <path d="M 284.858182 162.432 
L 288.104727 162.432 
L 288.104727 110.709551 
L 284.858182 110.709551 
z
" clip-path="url(#p9223fb1570)" style="fill: #1f77b4; stroke: #ffffff; stroke-linejoin: miter"/>
   </g>
   <g id="patch_69">
    <path d="M 288.104727 162.432 
L 291.351273 162.432 
L 291.351273 150.676898 
L 288.104727 150.676898 
z
" clip-path="url(#p9223fb1570)" style="fill: #1f77b4; stroke: #ffffff; stroke-linejoin: miter"/>
   </g>
   <g id="patch_70">
    <path d="M 291.351273 162.432 
L 294.597818 162.432 
L 294.597818 131.868735 
L 291.351273 131.868735 
z
" clip-path="url(#p9223fb1570)" style="fill: #1f77b4; stroke: #ffffff; stroke-linejoin: miter"/>
   </g>
   <g id="patch_71">
    <path d="M 294.597818 162.432 
L 297.844364 162.432 
L 297.844364 148.325878 
L 294.597818 148.325878 
z
" clip-path="url(#p9223fb1570)" style="fill: #1f77b4; stroke: #ffffff; stroke-linejoin: miter"/>
   </g>
   <g id="patch_72">
    <path d="M 297.844364 162.432 
L 301.090909 162.432 
L 301.090909 145.974857 
L 297.844364 145.974857 
z
" clip-path="url(#p9223fb1570)" style="fill: #1f77b4; stroke: #ffffff; stroke-linejoin: miter"/>
   </g>
   <g id="patch_73">
    <path d="M 301.090909 162.432 
L 304.337455 162.432 
L 304.337455 153.027918 
L 301.090909 153.027918 
z
" clip-path="url(#p9223fb1570)" style="fill: #1f77b4; stroke: #ffffff; stroke-linejoin: miter"/>
   </g>
   <g id="patch_74">
    <path d="M 304.337455 162.432 
L 307.584 162.432 
L 307.584 143.623837 
L 304.337455 143.623837 
z
" clip-path="url(#p9223fb1570)" style="fill: #1f77b4; stroke: #ffffff; stroke-linejoin: miter"/>
   </g>
   <g id="patch_75">
    <path d="M 307.584 162.432 
L 310.830545 162.432 
L 310.830545 134.219755 
L 307.584 134.219755 
z
" clip-path="url(#p9223fb1570)" style="fill: #1f77b4; stroke: #ffffff; stroke-linejoin: miter"/>
   </g>
   <g id="patch_76">
    <path d="M 310.830545 162.432 
L 314.077091 162.432 
L 314.077091 150.676898 
L 310.830545 150.676898 
z
" clip-path="url(#p9223fb1570)" style="fill: #1f77b4; stroke: #ffffff; stroke-linejoin: miter"/>
   </g>
   <g id="patch_77">
    <path d="M 314.077091 162.432 
L 317.323636 162.432 
L 317.323636 153.027918 
L 314.077091 153.027918 
z
" clip-path="url(#p9223fb1570)" style="fill: #1f77b4; stroke: #ffffff; stroke-linejoin: miter"/>
   </g>
   <g id="patch_78">
    <path d="M 317.323636 162.432 
L 320.570182 162.432 
L 320.570182 150.676898 
L 317.323636 150.676898 
z
" clip-path="url(#p9223fb1570)" style="fill: #1f77b4; stroke: #ffffff; stroke-linejoin: miter"/>
   </g>
   <g id="patch_79">
    <path d="M 320.570182 162.432 
L 323.816727 162.432 
L 323.816727 153.027918 
L 320.570182 153.027918 
z
" clip-path="url(#p9223fb1570)" style="fill: #1f77b4; stroke: #ffffff; stroke-linejoin: miter"/>
   </g>
   <g id="patch_80">
    <path d="M 323.816727 162.432 
L 327.063273 162.432 
L 327.063273 155.378939 
L 323.816727 155.378939 
z
" clip-path="url(#p9223fb1570)" style="fill: #1f77b4; stroke: #ffffff; stroke-linejoin: miter"/>
   </g>
   <g id="patch_81">
    <path d="M 327.063273 162.432 
L 330.309818 162.432 
L 330.309818 155.378939 
L 327.063273 155.378939 
z
" clip-path="url(#p9223fb1570)" style="fill: #1f77b4; stroke: #ffffff; stroke-linejoin: miter"/>
   </g>
   <g id="patch_82">
    <path d="M 330.309818 162.432 
L 333.556364 162.432 
L 333.556364 162.432 
L 330.309818 162.432 
z
" clip-path="url(#p9223fb1570)" style="fill: #1f77b4; stroke: #ffffff; stroke-linejoin: miter"/>
   </g>
   <g id="patch_83">
    <path d="M 333.556364 162.432 
L 336.802909 162.432 
L 336.802909 155.378939 
L 333.556364 155.378939 
z
" clip-path="url(#p9223fb1570)" style="fill: #1f77b4; stroke: #ffffff; stroke-linejoin: miter"/>
   </g>
   <g id="patch_84">
    <path d="M 336.802909 162.432 
L 340.049455 162.432 
L 340.049455 150.676898 
L 336.802909 150.676898 
z
" clip-path="url(#p9223fb1570)" style="fill: #1f77b4; stroke: #ffffff; stroke-linejoin: miter"/>
   </g>
   <g id="patch_85">
    <path d="M 340.049455 162.432 
L 343.296 162.432 
L 343.296 155.378939 
L 340.049455 155.378939 
z
" clip-path="url(#p9223fb1570)" style="fill: #1f77b4; stroke: #ffffff; stroke-linejoin: miter"/>
   </g>
   <g id="patch_86">
    <path d="M 343.296 162.432 
L 346.542545 162.432 
L 346.542545 157.729959 
L 343.296 157.729959 
z
" clip-path="url(#p9223fb1570)" style="fill: #1f77b4; stroke: #ffffff; stroke-linejoin: miter"/>
   </g>
   <g id="patch_87">
    <path d="M 346.542545 162.432 
L 349.789091 162.432 
L 349.789091 157.729959 
L 346.542545 157.729959 
z
" clip-path="url(#p9223fb1570)" style="fill: #1f77b4; stroke: #ffffff; stroke-linejoin: miter"/>
   </g>
   <g id="patch_88">
    <path d="M 349.789091 162.432 
L 353.035636 162.432 
L 353.035636 157.729959 
L 349.789091 157.729959 
z
" clip-path="url(#p9223fb1570)" style="fill: #1f77b4; stroke: #ffffff; stroke-linejoin: miter"/>
   </g>
   <g id="patch_89">
    <path d="M 353.035636 162.432 
L 356.282182 162.432 
L 356.282182 157.729959 
L 353.035636 157.729959 
z
" clip-path="url(#p9223fb1570)" style="fill: #1f77b4; stroke: #ffffff; stroke-linejoin: miter"/>
   </g>
   <g id="patch_90">
    <path d="M 356.282182 162.432 
L 359.528727 162.432 
L 359.528727 160.08098 
L 356.282182 160.08098 
z
" clip-path="url(#p9223fb1570)" style="fill: #1f77b4; stroke: #ffffff; stroke-linejoin: miter"/>
   </g>
   <g id="patch_91">
    <path d="M 359.528727 162.432 
L 362.775273 162.432 
L 362.775273 155.378939 
L 359.528727 155.378939 
z
" clip-path="url(#p9223fb1570)" style="fill: #1f77b4; stroke: #ffffff; stroke-linejoin: miter"/>
   </g>
   <g id="patch_92">
    <path d="M 362.775273 162.432 
L 366.021818 162.432 
L 366.021818 157.729959 
L 362.775273 157.729959 
z
" clip-path="url(#p9223fb1570)" style="fill: #1f77b4; stroke: #ffffff; stroke-linejoin: miter"/>
   </g>
   <g id="patch_93">
    <path d="M 366.021818 162.432 
L 369.268364 162.432 
L 369.268364 160.08098 
L 366.021818 160.08098 
z
" clip-path="url(#p9223fb1570)" style="fill: #1f77b4; stroke: #ffffff; stroke-linejoin: miter"/>
   </g>
   <g id="patch_94">
    <path d="M 369.268364 162.432 
L 372.514909 162.432 
L 372.514909 162.432 
L 369.268364 162.432 
z
" clip-path="url(#p9223fb1570)" style="fill: #1f77b4; stroke: #ffffff; stroke-linejoin: miter"/>
   </g>
   <g id="patch_95">
    <path d="M 372.514909 162.432 
L 375.761455 162.432 
L 375.761455 162.432 
L 372.514909 162.432 
z
" clip-path="url(#p9223fb1570)" style="fill: #1f77b4; stroke: #ffffff; stroke-linejoin: miter"/>
   </g>
   <g id="patch_96">
    <path d="M 375.761455 162.432 
L 379.008 162.432 
L 379.008 162.432 
L 375.761455 162.432 
z
" clip-path="url(#p9223fb1570)" style="fill: #1f77b4; stroke: #ffffff; stroke-linejoin: miter"/>
   </g>
   <g id="patch_97">
    <path d="M 379.008 162.432 
L 382.254545 162.432 
L 382.254545 160.08098 
L 379.008 160.08098 
z
" clip-path="url(#p9223fb1570)" style="fill: #1f77b4; stroke: #ffffff; stroke-linejoin: miter"/>
   </g>
   <g id="patch_98">
    <path d="M 382.254545 162.432 
L 385.501091 162.432 
L 385.501091 162.432 
L 382.254545 162.432 
z
" clip-path="url(#p9223fb1570)" style="fill: #1f77b4; stroke: #ffffff; stroke-linejoin: miter"/>
   </g>
   <g id="patch_99">
    <path d="M 385.501091 162.432 
L 388.747636 162.432 
L 388.747636 162.432 
L 385.501091 162.432 
z
" clip-path="url(#p9223fb1570)" style="fill: #1f77b4; stroke: #ffffff; stroke-linejoin: miter"/>
   </g>
   <g id="patch_100">
    <path d="M 388.747636 162.432 
L 391.994182 162.432 
L 391.994182 157.729959 
L 388.747636 157.729959 
z
" clip-path="url(#p9223fb1570)" style="fill: #1f77b4; stroke: #ffffff; stroke-linejoin: miter"/>
   </g>
   <g id="patch_101">
    <path d="M 391.994182 162.432 
L 395.240727 162.432 
L 395.240727 160.08098 
L 391.994182 160.08098 
z
" clip-path="url(#p9223fb1570)" style="fill: #1f77b4; stroke: #ffffff; stroke-linejoin: miter"/>
   </g>
   <g id="patch_102">
    <path d="M 395.240727 162.432 
L 398.487273 162.432 
L 398.487273 160.08098 
L 395.240727 160.08098 
z
" clip-path="url(#p9223fb1570)" style="fill: #1f77b4; stroke: #ffffff; stroke-linejoin: miter"/>
   </g>
   <g id="patch_103">
    <path d="M 57.6 162.432 
L 57.6 41.472 
" style="fill: none; stroke: #ffffff; stroke-width: 0.8; stroke-linejoin: miter; stroke-linecap: square"/>
   </g>
   <g id="patch_104">
    <path d="M 414.72 162.432 
L 414.72 41.472 
" style="fill: none; stroke: #ffffff; stroke-width: 0.8; stroke-linejoin: miter; stroke-linecap: square"/>
   </g>
   <g id="patch_105">
    <path d="M 57.6 162.432 
L 414.72 162.432 
" style="fill: none; stroke: #ffffff; stroke-width: 0.8; stroke-linejoin: miter; stroke-linecap: square"/>
   </g>
   <g id="patch_106">
    <path d="M 57.6 41.472 
L 414.72 41.472 
" style="fill: none; stroke: #ffffff; stroke-width: 0.8; stroke-linejoin: miter; stroke-linecap: square"/>
   </g>
   <g id="text_7">
    <!-- Input histogram (mean embedding vector) - 2 DAFX -->
    <g style="fill: #262626" transform="translate(80.034375 35.472) scale(0.12 -0.12)">
     <defs>
      <path id="DejaVuSans-49" d="M 628 4666 
L 1259 4666 
L 1259 0 
L 628 0 
L 628 4666 
z
" transform="scale(0.015625)"/>
      <path id="DejaVuSans-6e" d="M 3513 2113 
L 3513 0 
L 2938 0 
L 2938 2094 
Q 2938 2591 2744 2837 
Q 2550 3084 2163 3084 
Q 1697 3084 1428 2787 
Q 1159 2491 1159 1978 
L 1159 0 
L 581 0 
L 581 3500 
L 1159 3500 
L 1159 2956 
Q 1366 3272 1645 3428 
Q 1925 3584 2291 3584 
Q 2894 3584 3203 3211 
Q 3513 2838 3513 2113 
z
" transform="scale(0.015625)"/>
      <path id="DejaVuSans-70" d="M 1159 525 
L 1159 -1331 
L 581 -1331 
L 581 3500 
L 1159 3500 
L 1159 2969 
Q 1341 3281 1617 3432 
Q 1894 3584 2278 3584 
Q 2916 3584 3314 3078 
Q 3713 2572 3713 1747 
Q 3713 922 3314 415 
Q 2916 -91 2278 -91 
Q 1894 -91 1617 61 
Q 1341 213 1159 525 
z
M 3116 1747 
Q 3116 2381 2855 2742 
Q 2594 3103 2138 3103 
Q 1681 3103 1420 2742 
Q 1159 2381 1159 1747 
Q 1159 1113 1420 752 
Q 1681 391 2138 391 
Q 2594 391 2855 752 
Q 3116 1113 3116 1747 
z
" transform="scale(0.015625)"/>
      <path id="DejaVuSans-75" d="M 544 1381 
L 544 3500 
L 1119 3500 
L 1119 1403 
Q 1119 906 1312 657 
Q 1506 409 1894 409 
Q 2359 409 2629 706 
Q 2900 1003 2900 1516 
L 2900 3500 
L 3475 3500 
L 3475 0 
L 2900 0 
L 2900 538 
Q 2691 219 2414 64 
Q 2138 -91 1772 -91 
Q 1169 -91 856 284 
Q 544 659 544 1381 
z
M 1991 3584 
L 1991 3584 
z
" transform="scale(0.015625)"/>
      <path id="DejaVuSans-74" d="M 1172 4494 
L 1172 3500 
L 2356 3500 
L 2356 3053 
L 1172 3053 
L 1172 1153 
Q 1172 725 1289 603 
Q 1406 481 1766 481 
L 2356 481 
L 2356 0 
L 1766 0 
Q 1100 0 847 248 
Q 594 497 594 1153 
L 594 3053 
L 172 3053 
L 172 3500 
L 594 3500 
L 594 4494 
L 1172 4494 
z
" transform="scale(0.015625)"/>
      <path id="DejaVuSans-20" transform="scale(0.015625)"/>
      <path id="DejaVuSans-68" d="M 3513 2113 
L 3513 0 
L 2938 0 
L 2938 2094 
Q 2938 2591 2744 2837 
Q 2550 3084 2163 3084 
Q 1697 3084 1428 2787 
Q 1159 2491 1159 1978 
L 1159 0 
L 581 0 
L 581 4863 
L 1159 4863 
L 1159 2956 
Q 1366 3272 1645 3428 
Q 1925 3584 2291 3584 
Q 2894 3584 3203 3211 
Q 3513 2838 3513 2113 
z
" transform="scale(0.015625)"/>
      <path id="DejaVuSans-69" d="M 603 3500 
L 1178 3500 
L 1178 0 
L 603 0 
L 603 3500 
z
M 603 4863 
L 1178 4863 
L 1178 4134 
L 603 4134 
L 603 4863 
z
" transform="scale(0.015625)"/>
      <path id="DejaVuSans-73" d="M 2834 3397 
L 2834 2853 
Q 2591 2978 2328 3040 
Q 2066 3103 1784 3103 
Q 1356 3103 1142 2972 
Q 928 2841 928 2578 
Q 928 2378 1081 2264 
Q 1234 2150 1697 2047 
L 1894 2003 
Q 2506 1872 2764 1633 
Q 3022 1394 3022 966 
Q 3022 478 2636 193 
Q 2250 -91 1575 -91 
Q 1294 -91 989 -36 
Q 684 19 347 128 
L 347 722 
Q 666 556 975 473 
Q 1284 391 1588 391 
Q 1994 391 2212 530 
Q 2431 669 2431 922 
Q 2431 1156 2273 1281 
Q 2116 1406 1581 1522 
L 1381 1569 
Q 847 1681 609 1914 
Q 372 2147 372 2553 
Q 372 3047 722 3315 
Q 1072 3584 1716 3584 
Q 2034 3584 2315 3537 
Q 2597 3491 2834 3397 
z
" transform="scale(0.015625)"/>
      <path id="DejaVuSans-6f" d="M 1959 3097 
Q 1497 3097 1228 2736 
Q 959 2375 959 1747 
Q 959 1119 1226 758 
Q 1494 397 1959 397 
Q 2419 397 2687 759 
Q 2956 1122 2956 1747 
Q 2956 2369 2687 2733 
Q 2419 3097 1959 3097 
z
M 1959 3584 
Q 2709 3584 3137 3096 
Q 3566 2609 3566 1747 
Q 3566 888 3137 398 
Q 2709 -91 1959 -91 
Q 1206 -91 779 398 
Q 353 888 353 1747 
Q 353 2609 779 3096 
Q 1206 3584 1959 3584 
z
" transform="scale(0.015625)"/>
      <path id="DejaVuSans-67" d="M 2906 1791 
Q 2906 2416 2648 2759 
Q 2391 3103 1925 3103 
Q 1463 3103 1205 2759 
Q 947 2416 947 1791 
Q 947 1169 1205 825 
Q 1463 481 1925 481 
Q 2391 481 2648 825 
Q 2906 1169 2906 1791 
z
M 3481 434 
Q 3481 -459 3084 -895 
Q 2688 -1331 1869 -1331 
Q 1566 -1331 1297 -1286 
Q 1028 -1241 775 -1147 
L 775 -588 
Q 1028 -725 1275 -790 
Q 1522 -856 1778 -856 
Q 2344 -856 2625 -561 
Q 2906 -266 2906 331 
L 2906 616 
Q 2728 306 2450 153 
Q 2172 0 1784 0 
Q 1141 0 747 490 
Q 353 981 353 1791 
Q 353 2603 747 3093 
Q 1141 3584 1784 3584 
Q 2172 3584 2450 3431 
Q 2728 3278 2906 2969 
L 2906 3500 
L 3481 3500 
L 3481 434 
z
" transform="scale(0.015625)"/>
      <path id="DejaVuSans-72" d="M 2631 2963 
Q 2534 3019 2420 3045 
Q 2306 3072 2169 3072 
Q 1681 3072 1420 2755 
Q 1159 2438 1159 1844 
L 1159 0 
L 581 0 
L 581 3500 
L 1159 3500 
L 1159 2956 
Q 1341 3275 1631 3429 
Q 1922 3584 2338 3584 
Q 2397 3584 2469 3576 
Q 2541 3569 2628 3553 
L 2631 2963 
z
" transform="scale(0.015625)"/>
      <path id="DejaVuSans-61" d="M 2194 1759 
Q 1497 1759 1228 1600 
Q 959 1441 959 1056 
Q 959 750 1161 570 
Q 1363 391 1709 391 
Q 2188 391 2477 730 
Q 2766 1069 2766 1631 
L 2766 1759 
L 2194 1759 
z
M 3341 1997 
L 3341 0 
L 2766 0 
L 2766 531 
Q 2569 213 2275 61 
Q 1981 -91 1556 -91 
Q 1019 -91 701 211 
Q 384 513 384 1019 
Q 384 1609 779 1909 
Q 1175 2209 1959 2209 
L 2766 2209 
L 2766 2266 
Q 2766 2663 2505 2880 
Q 2244 3097 1772 3097 
Q 1472 3097 1187 3025 
Q 903 2953 641 2809 
L 641 3341 
Q 956 3463 1253 3523 
Q 1550 3584 1831 3584 
Q 2591 3584 2966 3190 
Q 3341 2797 3341 1997 
z
" transform="scale(0.015625)"/>
      <path id="DejaVuSans-6d" d="M 3328 2828 
Q 3544 3216 3844 3400 
Q 4144 3584 4550 3584 
Q 5097 3584 5394 3201 
Q 5691 2819 5691 2113 
L 5691 0 
L 5113 0 
L 5113 2094 
Q 5113 2597 4934 2840 
Q 4756 3084 4391 3084 
Q 3944 3084 3684 2787 
Q 3425 2491 3425 1978 
L 3425 0 
L 2847 0 
L 2847 2094 
Q 2847 2600 2669 2842 
Q 2491 3084 2119 3084 
Q 1678 3084 1418 2786 
Q 1159 2488 1159 1978 
L 1159 0 
L 581 0 
L 581 3500 
L 1159 3500 
L 1159 2956 
Q 1356 3278 1631 3431 
Q 1906 3584 2284 3584 
Q 2666 3584 2933 3390 
Q 3200 3197 3328 2828 
z
" transform="scale(0.015625)"/>
      <path id="DejaVuSans-28" d="M 1984 4856 
Q 1566 4138 1362 3434 
Q 1159 2731 1159 2009 
Q 1159 1288 1364 580 
Q 1569 -128 1984 -844 
L 1484 -844 
Q 1016 -109 783 600 
Q 550 1309 550 2009 
Q 550 2706 781 3412 
Q 1013 4119 1484 4856 
L 1984 4856 
z
" transform="scale(0.015625)"/>
      <path id="DejaVuSans-65" d="M 3597 1894 
L 3597 1613 
L 953 1613 
Q 991 1019 1311 708 
Q 1631 397 2203 397 
Q 2534 397 2845 478 
Q 3156 559 3463 722 
L 3463 178 
Q 3153 47 2828 -22 
Q 2503 -91 2169 -91 
Q 1331 -91 842 396 
Q 353 884 353 1716 
Q 353 2575 817 3079 
Q 1281 3584 2069 3584 
Q 2775 3584 3186 3129 
Q 3597 2675 3597 1894 
z
M 3022 2063 
Q 3016 2534 2758 2815 
Q 2500 3097 2075 3097 
Q 1594 3097 1305 2825 
Q 1016 2553 972 2059 
L 3022 2063 
z
" transform="scale(0.015625)"/>
      <path id="DejaVuSans-62" d="M 3116 1747 
Q 3116 2381 2855 2742 
Q 2594 3103 2138 3103 
Q 1681 3103 1420 2742 
Q 1159 2381 1159 1747 
Q 1159 1113 1420 752 
Q 1681 391 2138 391 
Q 2594 391 2855 752 
Q 3116 1113 3116 1747 
z
M 1159 2969 
Q 1341 3281 1617 3432 
Q 1894 3584 2278 3584 
Q 2916 3584 3314 3078 
Q 3713 2572 3713 1747 
Q 3713 922 3314 415 
Q 2916 -91 2278 -91 
Q 1894 -91 1617 61 
Q 1341 213 1159 525 
L 1159 0 
L 581 0 
L 581 4863 
L 1159 4863 
L 1159 2969 
z
" transform="scale(0.015625)"/>
      <path id="DejaVuSans-64" d="M 2906 2969 
L 2906 4863 
L 3481 4863 
L 3481 0 
L 2906 0 
L 2906 525 
Q 2725 213 2448 61 
Q 2172 -91 1784 -91 
Q 1150 -91 751 415 
Q 353 922 353 1747 
Q 353 2572 751 3078 
Q 1150 3584 1784 3584 
Q 2172 3584 2448 3432 
Q 2725 3281 2906 2969 
z
M 947 1747 
Q 947 1113 1208 752 
Q 1469 391 1925 391 
Q 2381 391 2643 752 
Q 2906 1113 2906 1747 
Q 2906 2381 2643 2742 
Q 2381 3103 1925 3103 
Q 1469 3103 1208 2742 
Q 947 2381 947 1747 
z
" transform="scale(0.015625)"/>
      <path id="DejaVuSans-76" d="M 191 3500 
L 800 3500 
L 1894 563 
L 2988 3500 
L 3597 3500 
L 2284 0 
L 1503 0 
L 191 3500 
z
" transform="scale(0.015625)"/>
      <path id="DejaVuSans-63" d="M 3122 3366 
L 3122 2828 
Q 2878 2963 2633 3030 
Q 2388 3097 2138 3097 
Q 1578 3097 1268 2742 
Q 959 2388 959 1747 
Q 959 1106 1268 751 
Q 1578 397 2138 397 
Q 2388 397 2633 464 
Q 2878 531 3122 666 
L 3122 134 
Q 2881 22 2623 -34 
Q 2366 -91 2075 -91 
Q 1284 -91 818 406 
Q 353 903 353 1747 
Q 353 2603 823 3093 
Q 1294 3584 2113 3584 
Q 2378 3584 2631 3529 
Q 2884 3475 3122 3366 
z
" transform="scale(0.015625)"/>
      <path id="DejaVuSans-29" d="M 513 4856 
L 1013 4856 
Q 1481 4119 1714 3412 
Q 1947 2706 1947 2009 
Q 1947 1309 1714 600 
Q 1481 -109 1013 -844 
L 513 -844 
Q 928 -128 1133 580 
Q 1338 1288 1338 2009 
Q 1338 2731 1133 3434 
Q 928 4138 513 4856 
z
" transform="scale(0.015625)"/>
      <path id="DejaVuSans-2d" d="M 313 2009 
L 1997 2009 
L 1997 1497 
L 313 1497 
L 313 2009 
z
" transform="scale(0.015625)"/>
      <path id="DejaVuSans-44" d="M 1259 4147 
L 1259 519 
L 2022 519 
Q 2988 519 3436 956 
Q 3884 1394 3884 2338 
Q 3884 3275 3436 3711 
Q 2988 4147 2022 4147 
L 1259 4147 
z
M 628 4666 
L 1925 4666 
Q 3281 4666 3915 4102 
Q 4550 3538 4550 2338 
Q 4550 1131 3912 565 
Q 3275 0 1925 0 
L 628 0 
L 628 4666 
z
" transform="scale(0.015625)"/>
      <path id="DejaVuSans-41" d="M 2188 4044 
L 1331 1722 
L 3047 1722 
L 2188 4044 
z
M 1831 4666 
L 2547 4666 
L 4325 0 
L 3669 0 
L 3244 1197 
L 1141 1197 
L 716 0 
L 50 0 
L 1831 4666 
z
" transform="scale(0.015625)"/>
      <path id="DejaVuSans-46" d="M 628 4666 
L 3309 4666 
L 3309 4134 
L 1259 4134 
L 1259 2759 
L 3109 2759 
L 3109 2228 
L 1259 2228 
L 1259 0 
L 628 0 
L 628 4666 
z
" transform="scale(0.015625)"/>
      <path id="DejaVuSans-58" d="M 403 4666 
L 1081 4666 
L 2241 2931 
L 3406 4666 
L 4084 4666 
L 2584 2425 
L 4184 0 
L 3506 0 
L 2194 1984 
L 872 0 
L 191 0 
L 1856 2491 
L 403 4666 
z
" transform="scale(0.015625)"/>
     </defs>
     <use xlink:href="#DejaVuSans-49"/>
     <use xlink:href="#DejaVuSans-6e" x="29.492188"/>
     <use xlink:href="#DejaVuSans-70" x="92.871094"/>
     <use xlink:href="#DejaVuSans-75" x="156.347656"/>
     <use xlink:href="#DejaVuSans-74" x="219.726562"/>
     <use xlink:href="#DejaVuSans-20" x="258.935547"/>
     <use xlink:href="#DejaVuSans-68" x="290.722656"/>
     <use xlink:href="#DejaVuSans-69" x="354.101562"/>
     <use xlink:href="#DejaVuSans-73" x="381.884766"/>
     <use xlink:href="#DejaVuSans-74" x="433.984375"/>
     <use xlink:href="#DejaVuSans-6f" x="473.193359"/>
     <use xlink:href="#DejaVuSans-67" x="534.375"/>
     <use xlink:href="#DejaVuSans-72" x="597.851562"/>
     <use xlink:href="#DejaVuSans-61" x="638.964844"/>
     <use xlink:href="#DejaVuSans-6d" x="700.244141"/>
     <use xlink:href="#DejaVuSans-20" x="797.65625"/>
     <use xlink:href="#DejaVuSans-28" x="829.443359"/>
     <use xlink:href="#DejaVuSans-6d" x="868.457031"/>
     <use xlink:href="#DejaVuSans-65" x="965.869141"/>
     <use xlink:href="#DejaVuSans-61" x="1027.392578"/>
     <use xlink:href="#DejaVuSans-6e" x="1088.671875"/>
     <use xlink:href="#DejaVuSans-20" x="1152.050781"/>
     <use xlink:href="#DejaVuSans-65" x="1183.837891"/>
     <use xlink:href="#DejaVuSans-6d" x="1245.361328"/>
     <use xlink:href="#DejaVuSans-62" x="1342.773438"/>
     <use xlink:href="#DejaVuSans-65" x="1406.25"/>
     <use xlink:href="#DejaVuSans-64" x="1467.773438"/>
     <use xlink:href="#DejaVuSans-64" x="1531.25"/>
     <use xlink:href="#DejaVuSans-69" x="1594.726562"/>
     <use xlink:href="#DejaVuSans-6e" x="1622.509766"/>
     <use xlink:href="#DejaVuSans-67" x="1685.888672"/>
     <use xlink:href="#DejaVuSans-20" x="1749.365234"/>
     <use xlink:href="#DejaVuSans-76" x="1781.152344"/>
     <use xlink:href="#DejaVuSans-65" x="1840.332031"/>
     <use xlink:href="#DejaVuSans-63" x="1901.855469"/>
     <use xlink:href="#DejaVuSans-74" x="1956.835938"/>
     <use xlink:href="#DejaVuSans-6f" x="1996.044922"/>
     <use xlink:href="#DejaVuSans-72" x="2057.226562"/>
     <use xlink:href="#DejaVuSans-29" x="2098.339844"/>
     <use xlink:href="#DejaVuSans-20" x="2137.353516"/>
     <use xlink:href="#DejaVuSans-2d" x="2169.140625"/>
     <use xlink:href="#DejaVuSans-20" x="2205.224609"/>
     <use xlink:href="#DejaVuSans-32" x="2237.011719"/>
     <use xlink:href="#DejaVuSans-20" x="2300.634766"/>
     <use xlink:href="#DejaVuSans-44" x="2332.421875"/>
     <use xlink:href="#DejaVuSans-41" x="2407.673828"/>
     <use xlink:href="#DejaVuSans-46" x="2476.082031"/>
     <use xlink:href="#DejaVuSans-58" x="2533.601562"/>
    </g>
   </g>
  </g>
  <g id="axes_2">
   <g id="patch_107">
    <path d="M 57.6 307.584 
L 414.72 307.584 
L 414.72 186.624 
L 57.6 186.624 
z
" style="fill: #eaeaf2"/>
   </g>
   <g id="matplotlib.axis_3">
    <g id="xtick_9">
     <g id="line2d_15">
      <path d="M 68.547859 307.584 
L 68.547859 186.624 
" clip-path="url(#p50e79482ed)" style="fill: none; stroke: #ffffff; stroke-width: 0.8; stroke-linecap: round"/>
     </g>
     <g id="text_8">
      <!-- −0.0100 -->
      <g style="fill: #262626" transform="translate(46.862703 322.182437) scale(0.1 -0.1)">
       <defs>
        <path id="DejaVuSans-2212" d="M 678 2272 
L 4684 2272 
L 4684 1741 
L 678 1741 
L 678 2272 
z
" transform="scale(0.015625)"/>
        <path id="DejaVuSans-2e" d="M 684 794 
L 1344 794 
L 1344 0 
L 684 0 
L 684 794 
z
" transform="scale(0.015625)"/>
       </defs>
       <use xlink:href="#DejaVuSans-2212"/>
       <use xlink:href="#DejaVuSans-30" x="83.789062"/>
       <use xlink:href="#DejaVuSans-2e" x="147.412109"/>
       <use xlink:href="#DejaVuSans-30" x="179.199219"/>
       <use xlink:href="#DejaVuSans-31" x="242.822266"/>
       <use xlink:href="#DejaVuSans-30" x="306.445312"/>
       <use xlink:href="#DejaVuSans-30" x="370.068359"/>
      </g>
     </g>
    </g>
    <g id="xtick_10">
     <g id="line2d_16">
      <path d="M 112.802887 307.584 
L 112.802887 186.624 
" clip-path="url(#p50e79482ed)" style="fill: none; stroke: #ffffff; stroke-width: 0.8; stroke-linecap: round"/>
     </g>
     <g id="text_9">
      <!-- −0.0075 -->
      <g style="fill: #262626" transform="translate(91.117731 322.182437) scale(0.1 -0.1)">
       <defs>
        <path id="DejaVuSans-37" d="M 525 4666 
L 3525 4666 
L 3525 4397 
L 1831 0 
L 1172 0 
L 2766 4134 
L 525 4134 
L 525 4666 
z
" transform="scale(0.015625)"/>
       </defs>
       <use xlink:href="#DejaVuSans-2212"/>
       <use xlink:href="#DejaVuSans-30" x="83.789062"/>
       <use xlink:href="#DejaVuSans-2e" x="147.412109"/>
       <use xlink:href="#DejaVuSans-30" x="179.199219"/>
       <use xlink:href="#DejaVuSans-30" x="242.822266"/>
       <use xlink:href="#DejaVuSans-37" x="306.445312"/>
       <use xlink:href="#DejaVuSans-35" x="370.068359"/>
      </g>
     </g>
    </g>
    <g id="xtick_11">
     <g id="line2d_17">
      <path d="M 157.057915 307.584 
L 157.057915 186.624 
" clip-path="url(#p50e79482ed)" style="fill: none; stroke: #ffffff; stroke-width: 0.8; stroke-linecap: round"/>
     </g>
     <g id="text_10">
      <!-- −0.0050 -->
      <g style="fill: #262626" transform="translate(135.372758 322.182437) scale(0.1 -0.1)">
       <use xlink:href="#DejaVuSans-2212"/>
       <use xlink:href="#DejaVuSans-30" x="83.789062"/>
       <use xlink:href="#DejaVuSans-2e" x="147.412109"/>
       <use xlink:href="#DejaVuSans-30" x="179.199219"/>
       <use xlink:href="#DejaVuSans-30" x="242.822266"/>
       <use xlink:href="#DejaVuSans-35" x="306.445312"/>
       <use xlink:href="#DejaVuSans-30" x="370.068359"/>
      </g>
     </g>
    </g>
    <g id="xtick_12">
     <g id="line2d_18">
      <path d="M 201.312942 307.584 
L 201.312942 186.624 
" clip-path="url(#p50e79482ed)" style="fill: none; stroke: #ffffff; stroke-width: 0.8; stroke-linecap: round"/>
     </g>
     <g id="text_11">
      <!-- −0.0025 -->
      <g style="fill: #262626" transform="translate(179.627786 322.182437) scale(0.1 -0.1)">
       <use xlink:href="#DejaVuSans-2212"/>
       <use xlink:href="#DejaVuSans-30" x="83.789062"/>
       <use xlink:href="#DejaVuSans-2e" x="147.412109"/>
       <use xlink:href="#DejaVuSans-30" x="179.199219"/>
       <use xlink:href="#DejaVuSans-30" x="242.822266"/>
       <use xlink:href="#DejaVuSans-32" x="306.445312"/>
       <use xlink:href="#DejaVuSans-35" x="370.068359"/>
      </g>
     </g>
    </g>
    <g id="xtick_13">
     <g id="line2d_19">
      <path d="M 245.56797 307.584 
L 245.56797 186.624 
" clip-path="url(#p50e79482ed)" style="fill: none; stroke: #ffffff; stroke-width: 0.8; stroke-linecap: round"/>
     </g>
     <g id="text_12">
      <!-- 0.0000 -->
      <g style="fill: #262626" transform="translate(228.072658 322.182437) scale(0.1 -0.1)">
       <use xlink:href="#DejaVuSans-30"/>
       <use xlink:href="#DejaVuSans-2e" x="63.623047"/>
       <use xlink:href="#DejaVuSans-30" x="95.410156"/>
       <use xlink:href="#DejaVuSans-30" x="159.033203"/>
       <use xlink:href="#DejaVuSans-30" x="222.65625"/>
       <use xlink:href="#DejaVuSans-30" x="286.279297"/>
      </g>
     </g>
    </g>
    <g id="xtick_14">
     <g id="line2d_20">
      <path d="M 289.822998 307.584 
L 289.822998 186.624 
" clip-path="url(#p50e79482ed)" style="fill: none; stroke: #ffffff; stroke-width: 0.8; stroke-linecap: round"/>
     </g>
     <g id="text_13">
      <!-- 0.0025 -->
      <g style="fill: #262626" transform="translate(272.327685 322.182437) scale(0.1 -0.1)">
       <use xlink:href="#DejaVuSans-30"/>
       <use xlink:href="#DejaVuSans-2e" x="63.623047"/>
       <use xlink:href="#DejaVuSans-30" x="95.410156"/>
       <use xlink:href="#DejaVuSans-30" x="159.033203"/>
       <use xlink:href="#DejaVuSans-32" x="222.65625"/>
       <use xlink:href="#DejaVuSans-35" x="286.279297"/>
      </g>
     </g>
    </g>
    <g id="xtick_15">
     <g id="line2d_21">
      <path d="M 334.078026 307.584 
L 334.078026 186.624 
" clip-path="url(#p50e79482ed)" style="fill: none; stroke: #ffffff; stroke-width: 0.8; stroke-linecap: round"/>
     </g>
     <g id="text_14">
      <!-- 0.0050 -->
      <g style="fill: #262626" transform="translate(316.582713 322.182437) scale(0.1 -0.1)">
       <use xlink:href="#DejaVuSans-30"/>
       <use xlink:href="#DejaVuSans-2e" x="63.623047"/>
       <use xlink:href="#DejaVuSans-30" x="95.410156"/>
       <use xlink:href="#DejaVuSans-30" x="159.033203"/>
       <use xlink:href="#DejaVuSans-35" x="222.65625"/>
       <use xlink:href="#DejaVuSans-30" x="286.279297"/>
      </g>
     </g>
    </g>
    <g id="xtick_16">
     <g id="line2d_22">
      <path d="M 378.333053 307.584 
L 378.333053 186.624 
" clip-path="url(#p50e79482ed)" style="fill: none; stroke: #ffffff; stroke-width: 0.8; stroke-linecap: round"/>
     </g>
     <g id="text_15">
      <!-- 0.0075 -->
      <g style="fill: #262626" transform="translate(360.837741 322.182437) scale(0.1 -0.1)">
       <use xlink:href="#DejaVuSans-30"/>
       <use xlink:href="#DejaVuSans-2e" x="63.623047"/>
       <use xlink:href="#DejaVuSans-30" x="95.410156"/>
       <use xlink:href="#DejaVuSans-30" x="159.033203"/>
       <use xlink:href="#DejaVuSans-37" x="222.65625"/>
       <use xlink:href="#DejaVuSans-35" x="286.279297"/>
      </g>
     </g>
    </g>
   </g>
   <g id="matplotlib.axis_4">
    <g id="ytick_7">
     <g id="line2d_23">
      <path d="M 57.6 307.584 
L 414.72 307.584 
" clip-path="url(#p50e79482ed)" style="fill: none; stroke: #ffffff; stroke-width: 0.8; stroke-linecap: round"/>
     </g>
     <g id="text_16">
      <!-- 0 -->
      <g style="fill: #262626" transform="translate(44.2375 311.383219) scale(0.1 -0.1)">
       <use xlink:href="#DejaVuSans-30"/>
      </g>
     </g>
    </g>
    <g id="ytick_8">
     <g id="line2d_24">
      <path d="M 57.6 275.133296 
L 414.72 275.133296 
" clip-path="url(#p50e79482ed)" style="fill: none; stroke: #ffffff; stroke-width: 0.8; stroke-linecap: round"/>
     </g>
     <g id="text_17">
      <!-- 20 -->
      <g style="fill: #262626" transform="translate(37.875 278.932515) scale(0.1 -0.1)">
       <use xlink:href="#DejaVuSans-32"/>
       <use xlink:href="#DejaVuSans-30" x="63.623047"/>
      </g>
     </g>
    </g>
    <g id="ytick_9">
     <g id="line2d_25">
      <path d="M 57.6 242.682592 
L 414.72 242.682592 
" clip-path="url(#p50e79482ed)" style="fill: none; stroke: #ffffff; stroke-width: 0.8; stroke-linecap: round"/>
     </g>
     <g id="text_18">
      <!-- 40 -->
      <g style="fill: #262626" transform="translate(37.875 246.48181) scale(0.1 -0.1)">
       <use xlink:href="#DejaVuSans-34"/>
       <use xlink:href="#DejaVuSans-30" x="63.623047"/>
      </g>
     </g>
    </g>
    <g id="ytick_10">
     <g id="line2d_26">
      <path d="M 57.6 210.231887 
L 414.72 210.231887 
" clip-path="url(#p50e79482ed)" style="fill: none; stroke: #ffffff; stroke-width: 0.8; stroke-linecap: round"/>
     </g>
     <g id="text_19">
      <!-- 60 -->
      <g style="fill: #262626" transform="translate(37.875 214.031106) scale(0.1 -0.1)">
       <defs>
        <path id="DejaVuSans-36" d="M 2113 2584 
Q 1688 2584 1439 2293 
Q 1191 2003 1191 1497 
Q 1191 994 1439 701 
Q 1688 409 2113 409 
Q 2538 409 2786 701 
Q 3034 994 3034 1497 
Q 3034 2003 2786 2293 
Q 2538 2584 2113 2584 
z
M 3366 4563 
L 3366 3988 
Q 3128 4100 2886 4159 
Q 2644 4219 2406 4219 
Q 1781 4219 1451 3797 
Q 1122 3375 1075 2522 
Q 1259 2794 1537 2939 
Q 1816 3084 2150 3084 
Q 2853 3084 3261 2657 
Q 3669 2231 3669 1497 
Q 3669 778 3244 343 
Q 2819 -91 2113 -91 
Q 1303 -91 875 529 
Q 447 1150 447 2328 
Q 447 3434 972 4092 
Q 1497 4750 2381 4750 
Q 2619 4750 2861 4703 
Q 3103 4656 3366 4563 
z
" transform="scale(0.015625)"/>
       </defs>
       <use xlink:href="#DejaVuSans-36"/>
       <use xlink:href="#DejaVuSans-30" x="63.623047"/>
      </g>
     </g>
    </g>
   </g>
   <g id="patch_108">
    <path d="M 124.802843 307.584 
L 127.065349 307.584 
L 127.065349 305.961465 
L 124.802843 305.961465 
z
" clip-path="url(#p50e79482ed)" style="fill: #1f77b4; stroke: #ffffff; stroke-linejoin: miter"/>
   </g>
   <g id="patch_109">
    <path d="M 127.065349 307.584 
L 129.327855 307.584 
L 129.327855 307.584 
L 127.065349 307.584 
z
" clip-path="url(#p50e79482ed)" style="fill: #1f77b4; stroke: #ffffff; stroke-linejoin: miter"/>
   </g>
   <g id="patch_110">
    <path d="M 129.327855 307.584 
L 131.59036 307.584 
L 131.59036 307.584 
L 129.327855 307.584 
z
" clip-path="url(#p50e79482ed)" style="fill: #1f77b4; stroke: #ffffff; stroke-linejoin: miter"/>
   </g>
   <g id="patch_111">
    <path d="M 131.59036 307.584 
L 133.852866 307.584 
L 133.852866 307.584 
L 131.59036 307.584 
z
" clip-path="url(#p50e79482ed)" style="fill: #1f77b4; stroke: #ffffff; stroke-linejoin: miter"/>
   </g>
   <g id="patch_112">
    <path d="M 133.852866 307.584 
L 136.115372 307.584 
L 136.115372 307.584 
L 133.852866 307.584 
z
" clip-path="url(#p50e79482ed)" style="fill: #1f77b4; stroke: #ffffff; stroke-linejoin: miter"/>
   </g>
   <g id="patch_113">
    <path d="M 136.115372 307.584 
L 138.377877 307.584 
L 138.377877 305.961465 
L 136.115372 305.961465 
z
" clip-path="url(#p50e79482ed)" style="fill: #1f77b4; stroke: #ffffff; stroke-linejoin: miter"/>
   </g>
   <g id="patch_114">
    <path d="M 138.377877 307.584 
L 140.640383 307.584 
L 140.640383 307.584 
L 138.377877 307.584 
z
" clip-path="url(#p50e79482ed)" style="fill: #1f77b4; stroke: #ffffff; stroke-linejoin: miter"/>
   </g>
   <g id="patch_115">
    <path d="M 140.640383 307.584 
L 142.902889 307.584 
L 142.902889 307.584 
L 140.640383 307.584 
z
" clip-path="url(#p50e79482ed)" style="fill: #1f77b4; stroke: #ffffff; stroke-linejoin: miter"/>
   </g>
   <g id="patch_116">
    <path d="M 142.902889 307.584 
L 145.165394 307.584 
L 145.165394 305.961465 
L 142.902889 305.961465 
z
" clip-path="url(#p50e79482ed)" style="fill: #1f77b4; stroke: #ffffff; stroke-linejoin: miter"/>
   </g>
   <g id="patch_117">
    <path d="M 145.165394 307.584 
L 147.4279 307.584 
L 147.4279 307.584 
L 145.165394 307.584 
z
" clip-path="url(#p50e79482ed)" style="fill: #1f77b4; stroke: #ffffff; stroke-linejoin: miter"/>
   </g>
   <g id="patch_118">
    <path d="M 147.4279 307.584 
L 149.690406 307.584 
L 149.690406 307.584 
L 147.4279 307.584 
z
" clip-path="url(#p50e79482ed)" style="fill: #1f77b4; stroke: #ffffff; stroke-linejoin: miter"/>
   </g>
   <g id="patch_119">
    <path d="M 149.690406 307.584 
L 151.952911 307.584 
L 151.952911 304.33893 
L 149.690406 304.33893 
z
" clip-path="url(#p50e79482ed)" style="fill: #1f77b4; stroke: #ffffff; stroke-linejoin: miter"/>
   </g>
   <g id="patch_120">
    <path d="M 151.952911 307.584 
L 154.215417 307.584 
L 154.215417 307.584 
L 151.952911 307.584 
z
" clip-path="url(#p50e79482ed)" style="fill: #1f77b4; stroke: #ffffff; stroke-linejoin: miter"/>
   </g>
   <g id="patch_121">
    <path d="M 154.215417 307.584 
L 156.477923 307.584 
L 156.477923 307.584 
L 154.215417 307.584 
z
" clip-path="url(#p50e79482ed)" style="fill: #1f77b4; stroke: #ffffff; stroke-linejoin: miter"/>
   </g>
   <g id="patch_122">
    <path d="M 156.477923 307.584 
L 158.740428 307.584 
L 158.740428 307.584 
L 156.477923 307.584 
z
" clip-path="url(#p50e79482ed)" style="fill: #1f77b4; stroke: #ffffff; stroke-linejoin: miter"/>
   </g>
   <g id="patch_123">
    <path d="M 158.740428 307.584 
L 161.002934 307.584 
L 161.002934 305.961465 
L 158.740428 305.961465 
z
" clip-path="url(#p50e79482ed)" style="fill: #1f77b4; stroke: #ffffff; stroke-linejoin: miter"/>
   </g>
   <g id="patch_124">
    <path d="M 161.002934 307.584 
L 163.26544 307.584 
L 163.26544 305.961465 
L 161.002934 305.961465 
z
" clip-path="url(#p50e79482ed)" style="fill: #1f77b4; stroke: #ffffff; stroke-linejoin: miter"/>
   </g>
   <g id="patch_125">
    <path d="M 163.26544 307.584 
L 165.527945 307.584 
L 165.527945 301.093859 
L 163.26544 301.093859 
z
" clip-path="url(#p50e79482ed)" style="fill: #1f77b4; stroke: #ffffff; stroke-linejoin: miter"/>
   </g>
   <g id="patch_126">
    <path d="M 165.527945 307.584 
L 167.790451 307.584 
L 167.790451 307.584 
L 165.527945 307.584 
z
" clip-path="url(#p50e79482ed)" style="fill: #1f77b4; stroke: #ffffff; stroke-linejoin: miter"/>
   </g>
   <g id="patch_127">
    <path d="M 167.790451 307.584 
L 170.052957 307.584 
L 170.052957 305.961465 
L 167.790451 305.961465 
z
" clip-path="url(#p50e79482ed)" style="fill: #1f77b4; stroke: #ffffff; stroke-linejoin: miter"/>
   </g>
   <g id="patch_128">
    <path d="M 170.052957 307.584 
L 172.315462 307.584 
L 172.315462 307.584 
L 170.052957 307.584 
z
" clip-path="url(#p50e79482ed)" style="fill: #1f77b4; stroke: #ffffff; stroke-linejoin: miter"/>
   </g>
   <g id="patch_129">
    <path d="M 172.315462 307.584 
L 174.577968 307.584 
L 174.577968 305.961465 
L 172.315462 305.961465 
z
" clip-path="url(#p50e79482ed)" style="fill: #1f77b4; stroke: #ffffff; stroke-linejoin: miter"/>
   </g>
   <g id="patch_130">
    <path d="M 174.577968 307.584 
L 176.840474 307.584 
L 176.840474 307.584 
L 174.577968 307.584 
z
" clip-path="url(#p50e79482ed)" style="fill: #1f77b4; stroke: #ffffff; stroke-linejoin: miter"/>
   </g>
   <g id="patch_131">
    <path d="M 176.840474 307.584 
L 179.102979 307.584 
L 179.102979 307.584 
L 176.840474 307.584 
z
" clip-path="url(#p50e79482ed)" style="fill: #1f77b4; stroke: #ffffff; stroke-linejoin: miter"/>
   </g>
   <g id="patch_132">
    <path d="M 179.102979 307.584 
L 181.365485 307.584 
L 181.365485 307.584 
L 179.102979 307.584 
z
" clip-path="url(#p50e79482ed)" style="fill: #1f77b4; stroke: #ffffff; stroke-linejoin: miter"/>
   </g>
   <g id="patch_133">
    <path d="M 181.365485 307.584 
L 183.627991 307.584 
L 183.627991 302.716394 
L 181.365485 302.716394 
z
" clip-path="url(#p50e79482ed)" style="fill: #1f77b4; stroke: #ffffff; stroke-linejoin: miter"/>
   </g>
   <g id="patch_134">
    <path d="M 183.627991 307.584 
L 185.890496 307.584 
L 185.890496 307.584 
L 183.627991 307.584 
z
" clip-path="url(#p50e79482ed)" style="fill: #1f77b4; stroke: #ffffff; stroke-linejoin: miter"/>
   </g>
   <g id="patch_135">
    <path d="M 185.890496 307.584 
L 188.153002 307.584 
L 188.153002 305.961465 
L 185.890496 305.961465 
z
" clip-path="url(#p50e79482ed)" style="fill: #1f77b4; stroke: #ffffff; stroke-linejoin: miter"/>
   </g>
   <g id="patch_136">
    <path d="M 188.153002 307.584 
L 190.415508 307.584 
L 190.415508 305.961465 
L 188.153002 305.961465 
z
" clip-path="url(#p50e79482ed)" style="fill: #1f77b4; stroke: #ffffff; stroke-linejoin: miter"/>
   </g>
   <g id="patch_137">
    <path d="M 190.415508 307.584 
L 192.678013 307.584 
L 192.678013 304.33893 
L 190.415508 304.33893 
z
" clip-path="url(#p50e79482ed)" style="fill: #1f77b4; stroke: #ffffff; stroke-linejoin: miter"/>
   </g>
   <g id="patch_138">
    <path d="M 192.678013 307.584 
L 194.940519 307.584 
L 194.940519 302.716394 
L 192.678013 302.716394 
z
" clip-path="url(#p50e79482ed)" style="fill: #1f77b4; stroke: #ffffff; stroke-linejoin: miter"/>
   </g>
   <g id="patch_139">
    <path d="M 194.940519 307.584 
L 197.203025 307.584 
L 197.203025 304.33893 
L 194.940519 304.33893 
z
" clip-path="url(#p50e79482ed)" style="fill: #1f77b4; stroke: #ffffff; stroke-linejoin: miter"/>
   </g>
   <g id="patch_140">
    <path d="M 197.203025 307.584 
L 199.46553 307.584 
L 199.46553 297.848789 
L 197.203025 297.848789 
z
" clip-path="url(#p50e79482ed)" style="fill: #1f77b4; stroke: #ffffff; stroke-linejoin: miter"/>
   </g>
   <g id="patch_141">
    <path d="M 199.46553 307.584 
L 201.728036 307.584 
L 201.728036 301.093859 
L 199.46553 301.093859 
z
" clip-path="url(#p50e79482ed)" style="fill: #1f77b4; stroke: #ffffff; stroke-linejoin: miter"/>
   </g>
   <g id="patch_142">
    <path d="M 201.728036 307.584 
L 203.990542 307.584 
L 203.990542 305.961465 
L 201.728036 305.961465 
z
" clip-path="url(#p50e79482ed)" style="fill: #1f77b4; stroke: #ffffff; stroke-linejoin: miter"/>
   </g>
   <g id="patch_143">
    <path d="M 203.990542 307.584 
L 206.253047 307.584 
L 206.253047 307.584 
L 203.990542 307.584 
z
" clip-path="url(#p50e79482ed)" style="fill: #1f77b4; stroke: #ffffff; stroke-linejoin: miter"/>
   </g>
   <g id="patch_144">
    <path d="M 206.253047 307.584 
L 208.515553 307.584 
L 208.515553 304.33893 
L 206.253047 304.33893 
z
" clip-path="url(#p50e79482ed)" style="fill: #1f77b4; stroke: #ffffff; stroke-linejoin: miter"/>
   </g>
   <g id="patch_145">
    <path d="M 208.515553 307.584 
L 210.778059 307.584 
L 210.778059 305.961465 
L 208.515553 305.961465 
z
" clip-path="url(#p50e79482ed)" style="fill: #1f77b4; stroke: #ffffff; stroke-linejoin: miter"/>
   </g>
   <g id="patch_146">
    <path d="M 210.778059 307.584 
L 213.040564 307.584 
L 213.040564 304.33893 
L 210.778059 304.33893 
z
" clip-path="url(#p50e79482ed)" style="fill: #1f77b4; stroke: #ffffff; stroke-linejoin: miter"/>
   </g>
   <g id="patch_147">
    <path d="M 213.040564 307.584 
L 215.30307 307.584 
L 215.30307 304.33893 
L 213.040564 304.33893 
z
" clip-path="url(#p50e79482ed)" style="fill: #1f77b4; stroke: #ffffff; stroke-linejoin: miter"/>
   </g>
   <g id="patch_148">
    <path d="M 215.30307 307.584 
L 217.565576 307.584 
L 217.565576 299.471324 
L 215.30307 299.471324 
z
" clip-path="url(#p50e79482ed)" style="fill: #1f77b4; stroke: #ffffff; stroke-linejoin: miter"/>
   </g>
   <g id="patch_149">
    <path d="M 217.565576 307.584 
L 219.828081 307.584 
L 219.828081 301.093859 
L 217.565576 301.093859 
z
" clip-path="url(#p50e79482ed)" style="fill: #1f77b4; stroke: #ffffff; stroke-linejoin: miter"/>
   </g>
   <g id="patch_150">
    <path d="M 219.828081 307.584 
L 222.090587 307.584 
L 222.090587 284.868507 
L 219.828081 284.868507 
z
" clip-path="url(#p50e79482ed)" style="fill: #1f77b4; stroke: #ffffff; stroke-linejoin: miter"/>
   </g>
   <g id="patch_151">
    <path d="M 222.090587 307.584 
L 224.353093 307.584 
L 224.353093 280.000901 
L 222.090587 280.000901 
z
" clip-path="url(#p50e79482ed)" style="fill: #1f77b4; stroke: #ffffff; stroke-linejoin: miter"/>
   </g>
   <g id="patch_152">
    <path d="M 224.353093 307.584 
L 226.615598 307.584 
L 226.615598 270.26569 
L 224.353093 270.26569 
z
" clip-path="url(#p50e79482ed)" style="fill: #1f77b4; stroke: #ffffff; stroke-linejoin: miter"/>
   </g>
   <g id="patch_153">
    <path d="M 226.615598 307.584 
L 228.878104 307.584 
L 228.878104 258.907944 
L 226.615598 258.907944 
z
" clip-path="url(#p50e79482ed)" style="fill: #1f77b4; stroke: #ffffff; stroke-linejoin: miter"/>
   </g>
   <g id="patch_154">
    <path d="M 228.878104 307.584 
L 231.140609 307.584 
L 231.140609 254.040338 
L 228.878104 254.040338 
z
" clip-path="url(#p50e79482ed)" style="fill: #1f77b4; stroke: #ffffff; stroke-linejoin: miter"/>
   </g>
   <g id="patch_155">
    <path d="M 231.140609 307.584 
L 233.403115 307.584 
L 233.403115 258.907944 
L 231.140609 258.907944 
z
" clip-path="url(#p50e79482ed)" style="fill: #1f77b4; stroke: #ffffff; stroke-linejoin: miter"/>
   </g>
   <g id="patch_156">
    <path d="M 233.403115 307.584 
L 235.665621 307.584 
L 235.665621 228.079775 
L 233.403115 228.079775 
z
" clip-path="url(#p50e79482ed)" style="fill: #1f77b4; stroke: #ffffff; stroke-linejoin: miter"/>
   </g>
   <g id="patch_157">
    <path d="M 235.665621 307.584 
L 237.928126 307.584 
L 237.928126 211.854423 
L 235.665621 211.854423 
z
" clip-path="url(#p50e79482ed)" style="fill: #1f77b4; stroke: #ffffff; stroke-linejoin: miter"/>
   </g>
   <g id="patch_158">
    <path d="M 237.928126 307.584 
L 240.190632 307.584 
L 240.190632 219.967099 
L 237.928126 219.967099 
z
" clip-path="url(#p50e79482ed)" style="fill: #1f77b4; stroke: #ffffff; stroke-linejoin: miter"/>
   </g>
   <g id="patch_159">
    <path d="M 240.190632 307.584 
L 242.453138 307.584 
L 242.453138 215.099493 
L 240.190632 215.099493 
z
" clip-path="url(#p50e79482ed)" style="fill: #1f77b4; stroke: #ffffff; stroke-linejoin: miter"/>
   </g>
   <g id="patch_160">
    <path d="M 242.453138 307.584 
L 244.715643 307.584 
L 244.715643 202.119211 
L 242.453138 202.119211 
z
" clip-path="url(#p50e79482ed)" style="fill: #1f77b4; stroke: #ffffff; stroke-linejoin: miter"/>
   </g>
   <g id="patch_161">
    <path d="M 244.715643 307.584 
L 246.978149 307.584 
L 246.978149 192.384 
L 244.715643 192.384 
z
" clip-path="url(#p50e79482ed)" style="fill: #1f77b4; stroke: #ffffff; stroke-linejoin: miter"/>
   </g>
   <g id="patch_162">
    <path d="M 246.978149 307.584 
L 249.240655 307.584 
L 249.240655 211.854423 
L 246.978149 211.854423 
z
" clip-path="url(#p50e79482ed)" style="fill: #1f77b4; stroke: #ffffff; stroke-linejoin: miter"/>
   </g>
   <g id="patch_163">
    <path d="M 249.240655 307.584 
L 251.50316 307.584 
L 251.50316 195.62907 
L 249.240655 195.62907 
z
" clip-path="url(#p50e79482ed)" style="fill: #1f77b4; stroke: #ffffff; stroke-linejoin: miter"/>
   </g>
   <g id="patch_164">
    <path d="M 251.50316 307.584 
L 253.765666 307.584 
L 253.765666 244.305127 
L 251.50316 244.305127 
z
" clip-path="url(#p50e79482ed)" style="fill: #1f77b4; stroke: #ffffff; stroke-linejoin: miter"/>
   </g>
   <g id="patch_165">
    <path d="M 253.765666 307.584 
L 256.028172 307.584 
L 256.028172 231.324845 
L 253.765666 231.324845 
z
" clip-path="url(#p50e79482ed)" style="fill: #1f77b4; stroke: #ffffff; stroke-linejoin: miter"/>
   </g>
   <g id="patch_166">
    <path d="M 256.028172 307.584 
L 258.290677 307.584 
L 258.290677 226.457239 
L 256.028172 226.457239 
z
" clip-path="url(#p50e79482ed)" style="fill: #1f77b4; stroke: #ffffff; stroke-linejoin: miter"/>
   </g>
   <g id="patch_167">
    <path d="M 258.290677 307.584 
L 260.553183 307.584 
L 260.553183 241.060056 
L 258.290677 241.060056 
z
" clip-path="url(#p50e79482ed)" style="fill: #1f77b4; stroke: #ffffff; stroke-linejoin: miter"/>
   </g>
   <g id="patch_168">
    <path d="M 260.553183 307.584 
L 262.815689 307.584 
L 262.815689 250.795268 
L 260.553183 250.795268 
z
" clip-path="url(#p50e79482ed)" style="fill: #1f77b4; stroke: #ffffff; stroke-linejoin: miter"/>
   </g>
   <g id="patch_169">
    <path d="M 262.815689 307.584 
L 265.078194 307.584 
L 265.078194 273.510761 
L 262.815689 273.510761 
z
" clip-path="url(#p50e79482ed)" style="fill: #1f77b4; stroke: #ffffff; stroke-linejoin: miter"/>
   </g>
   <g id="patch_170">
    <path d="M 265.078194 307.584 
L 267.3407 307.584 
L 267.3407 275.133296 
L 265.078194 275.133296 
z
" clip-path="url(#p50e79482ed)" style="fill: #1f77b4; stroke: #ffffff; stroke-linejoin: miter"/>
   </g>
   <g id="patch_171">
    <path d="M 267.3407 307.584 
L 269.603206 307.584 
L 269.603206 292.981183 
L 267.3407 292.981183 
z
" clip-path="url(#p50e79482ed)" style="fill: #1f77b4; stroke: #ffffff; stroke-linejoin: miter"/>
   </g>
   <g id="patch_172">
    <path d="M 269.603206 307.584 
L 271.865711 307.584 
L 271.865711 301.093859 
L 269.603206 301.093859 
z
" clip-path="url(#p50e79482ed)" style="fill: #1f77b4; stroke: #ffffff; stroke-linejoin: miter"/>
   </g>
   <g id="patch_173">
    <path d="M 271.865711 307.584 
L 274.128217 307.584 
L 274.128217 294.603718 
L 271.865711 294.603718 
z
" clip-path="url(#p50e79482ed)" style="fill: #1f77b4; stroke: #ffffff; stroke-linejoin: miter"/>
   </g>
   <g id="patch_174">
    <path d="M 274.128217 307.584 
L 276.390723 307.584 
L 276.390723 301.093859 
L 274.128217 301.093859 
z
" clip-path="url(#p50e79482ed)" style="fill: #1f77b4; stroke: #ffffff; stroke-linejoin: miter"/>
   </g>
   <g id="patch_175">
    <path d="M 276.390723 307.584 
L 278.653228 307.584 
L 278.653228 294.603718 
L 276.390723 294.603718 
z
" clip-path="url(#p50e79482ed)" style="fill: #1f77b4; stroke: #ffffff; stroke-linejoin: miter"/>
   </g>
   <g id="patch_176">
    <path d="M 278.653228 307.584 
L 280.915734 307.584 
L 280.915734 304.33893 
L 278.653228 304.33893 
z
" clip-path="url(#p50e79482ed)" style="fill: #1f77b4; stroke: #ffffff; stroke-linejoin: miter"/>
   </g>
   <g id="patch_177">
    <path d="M 280.915734 307.584 
L 283.17824 307.584 
L 283.17824 296.226254 
L 280.915734 296.226254 
z
" clip-path="url(#p50e79482ed)" style="fill: #1f77b4; stroke: #ffffff; stroke-linejoin: miter"/>
   </g>
   <g id="patch_178">
    <path d="M 283.17824 307.584 
L 285.440745 307.584 
L 285.440745 304.33893 
L 283.17824 304.33893 
z
" clip-path="url(#p50e79482ed)" style="fill: #1f77b4; stroke: #ffffff; stroke-linejoin: miter"/>
   </g>
   <g id="patch_179">
    <path d="M 285.440745 307.584 
L 287.703251 307.584 
L 287.703251 302.716394 
L 285.440745 302.716394 
z
" clip-path="url(#p50e79482ed)" style="fill: #1f77b4; stroke: #ffffff; stroke-linejoin: miter"/>
   </g>
   <g id="patch_180">
    <path d="M 287.703251 307.584 
L 289.965757 307.584 
L 289.965757 304.33893 
L 287.703251 304.33893 
z
" clip-path="url(#p50e79482ed)" style="fill: #1f77b4; stroke: #ffffff; stroke-linejoin: miter"/>
   </g>
   <g id="patch_181">
    <path d="M 289.965757 307.584 
L 292.228262 307.584 
L 292.228262 301.093859 
L 289.965757 301.093859 
z
" clip-path="url(#p50e79482ed)" style="fill: #1f77b4; stroke: #ffffff; stroke-linejoin: miter"/>
   </g>
   <g id="patch_182">
    <path d="M 292.228262 307.584 
L 294.490768 307.584 
L 294.490768 305.961465 
L 292.228262 305.961465 
z
" clip-path="url(#p50e79482ed)" style="fill: #1f77b4; stroke: #ffffff; stroke-linejoin: miter"/>
   </g>
   <g id="patch_183">
    <path d="M 294.490768 307.584 
L 296.753274 307.584 
L 296.753274 299.471324 
L 294.490768 299.471324 
z
" clip-path="url(#p50e79482ed)" style="fill: #1f77b4; stroke: #ffffff; stroke-linejoin: miter"/>
   </g>
   <g id="patch_184">
    <path d="M 296.753274 307.584 
L 299.015779 307.584 
L 299.015779 305.961465 
L 296.753274 305.961465 
z
" clip-path="url(#p50e79482ed)" style="fill: #1f77b4; stroke: #ffffff; stroke-linejoin: miter"/>
   </g>
   <g id="patch_185">
    <path d="M 299.015779 307.584 
L 301.278285 307.584 
L 301.278285 305.961465 
L 299.015779 305.961465 
z
" clip-path="url(#p50e79482ed)" style="fill: #1f77b4; stroke: #ffffff; stroke-linejoin: miter"/>
   </g>
   <g id="patch_186">
    <path d="M 301.278285 307.584 
L 303.540791 307.584 
L 303.540791 307.584 
L 301.278285 307.584 
z
" clip-path="url(#p50e79482ed)" style="fill: #1f77b4; stroke: #ffffff; stroke-linejoin: miter"/>
   </g>
   <g id="patch_187">
    <path d="M 303.540791 307.584 
L 305.803296 307.584 
L 305.803296 301.093859 
L 303.540791 301.093859 
z
" clip-path="url(#p50e79482ed)" style="fill: #1f77b4; stroke: #ffffff; stroke-linejoin: miter"/>
   </g>
   <g id="patch_188">
    <path d="M 305.803296 307.584 
L 308.065802 307.584 
L 308.065802 301.093859 
L 305.803296 301.093859 
z
" clip-path="url(#p50e79482ed)" style="fill: #1f77b4; stroke: #ffffff; stroke-linejoin: miter"/>
   </g>
   <g id="patch_189">
    <path d="M 308.065802 307.584 
L 310.328308 307.584 
L 310.328308 304.33893 
L 308.065802 304.33893 
z
" clip-path="url(#p50e79482ed)" style="fill: #1f77b4; stroke: #ffffff; stroke-linejoin: miter"/>
   </g>
   <g id="patch_190">
    <path d="M 310.328308 307.584 
L 312.590813 307.584 
L 312.590813 307.584 
L 310.328308 307.584 
z
" clip-path="url(#p50e79482ed)" style="fill: #1f77b4; stroke: #ffffff; stroke-linejoin: miter"/>
   </g>
   <g id="patch_191">
    <path d="M 312.590813 307.584 
L 314.853319 307.584 
L 314.853319 301.093859 
L 312.590813 301.093859 
z
" clip-path="url(#p50e79482ed)" style="fill: #1f77b4; stroke: #ffffff; stroke-linejoin: miter"/>
   </g>
   <g id="patch_192">
    <path d="M 314.853319 307.584 
L 317.115825 307.584 
L 317.115825 307.584 
L 314.853319 307.584 
z
" clip-path="url(#p50e79482ed)" style="fill: #1f77b4; stroke: #ffffff; stroke-linejoin: miter"/>
   </g>
   <g id="patch_193">
    <path d="M 317.115825 307.584 
L 319.37833 307.584 
L 319.37833 302.716394 
L 317.115825 302.716394 
z
" clip-path="url(#p50e79482ed)" style="fill: #1f77b4; stroke: #ffffff; stroke-linejoin: miter"/>
   </g>
   <g id="patch_194">
    <path d="M 319.37833 307.584 
L 321.640836 307.584 
L 321.640836 299.471324 
L 319.37833 299.471324 
z
" clip-path="url(#p50e79482ed)" style="fill: #1f77b4; stroke: #ffffff; stroke-linejoin: miter"/>
   </g>
   <g id="patch_195">
    <path d="M 321.640836 307.584 
L 323.903342 307.584 
L 323.903342 305.961465 
L 321.640836 305.961465 
z
" clip-path="url(#p50e79482ed)" style="fill: #1f77b4; stroke: #ffffff; stroke-linejoin: miter"/>
   </g>
   <g id="patch_196">
    <path d="M 323.903342 307.584 
L 326.165847 307.584 
L 326.165847 307.584 
L 323.903342 307.584 
z
" clip-path="url(#p50e79482ed)" style="fill: #1f77b4; stroke: #ffffff; stroke-linejoin: miter"/>
   </g>
   <g id="patch_197">
    <path d="M 326.165847 307.584 
L 328.428353 307.584 
L 328.428353 307.584 
L 326.165847 307.584 
z
" clip-path="url(#p50e79482ed)" style="fill: #1f77b4; stroke: #ffffff; stroke-linejoin: miter"/>
   </g>
   <g id="patch_198">
    <path d="M 328.428353 307.584 
L 330.690859 307.584 
L 330.690859 305.961465 
L 328.428353 305.961465 
z
" clip-path="url(#p50e79482ed)" style="fill: #1f77b4; stroke: #ffffff; stroke-linejoin: miter"/>
   </g>
   <g id="patch_199">
    <path d="M 330.690859 307.584 
L 332.953364 307.584 
L 332.953364 307.584 
L 330.690859 307.584 
z
" clip-path="url(#p50e79482ed)" style="fill: #1f77b4; stroke: #ffffff; stroke-linejoin: miter"/>
   </g>
   <g id="patch_200">
    <path d="M 332.953364 307.584 
L 335.21587 307.584 
L 335.21587 307.584 
L 332.953364 307.584 
z
" clip-path="url(#p50e79482ed)" style="fill: #1f77b4; stroke: #ffffff; stroke-linejoin: miter"/>
   </g>
   <g id="patch_201">
    <path d="M 335.21587 307.584 
L 337.478376 307.584 
L 337.478376 307.584 
L 335.21587 307.584 
z
" clip-path="url(#p50e79482ed)" style="fill: #1f77b4; stroke: #ffffff; stroke-linejoin: miter"/>
   </g>
   <g id="patch_202">
    <path d="M 337.478376 307.584 
L 339.740881 307.584 
L 339.740881 307.584 
L 337.478376 307.584 
z
" clip-path="url(#p50e79482ed)" style="fill: #1f77b4; stroke: #ffffff; stroke-linejoin: miter"/>
   </g>
   <g id="patch_203">
    <path d="M 339.740881 307.584 
L 342.003387 307.584 
L 342.003387 305.961465 
L 339.740881 305.961465 
z
" clip-path="url(#p50e79482ed)" style="fill: #1f77b4; stroke: #ffffff; stroke-linejoin: miter"/>
   </g>
   <g id="patch_204">
    <path d="M 342.003387 307.584 
L 344.265893 307.584 
L 344.265893 307.584 
L 342.003387 307.584 
z
" clip-path="url(#p50e79482ed)" style="fill: #1f77b4; stroke: #ffffff; stroke-linejoin: miter"/>
   </g>
   <g id="patch_205">
    <path d="M 344.265893 307.584 
L 346.528398 307.584 
L 346.528398 305.961465 
L 344.265893 305.961465 
z
" clip-path="url(#p50e79482ed)" style="fill: #1f77b4; stroke: #ffffff; stroke-linejoin: miter"/>
   </g>
   <g id="patch_206">
    <path d="M 346.528398 307.584 
L 348.790904 307.584 
L 348.790904 305.961465 
L 346.528398 305.961465 
z
" clip-path="url(#p50e79482ed)" style="fill: #1f77b4; stroke: #ffffff; stroke-linejoin: miter"/>
   </g>
   <g id="patch_207">
    <path d="M 348.790904 307.584 
L 351.05341 307.584 
L 351.05341 305.961465 
L 348.790904 305.961465 
z
" clip-path="url(#p50e79482ed)" style="fill: #1f77b4; stroke: #ffffff; stroke-linejoin: miter"/>
   </g>
   <g id="patch_208">
    <path d="M 57.6 307.584 
L 57.6 186.624 
" style="fill: none; stroke: #ffffff; stroke-width: 0.8; stroke-linejoin: miter; stroke-linecap: square"/>
   </g>
   <g id="patch_209">
    <path d="M 414.72 307.584 
L 414.72 186.624 
" style="fill: none; stroke: #ffffff; stroke-width: 0.8; stroke-linejoin: miter; stroke-linecap: square"/>
   </g>
   <g id="patch_210">
    <path d="M 57.6 307.584 
L 414.72 307.584 
" style="fill: none; stroke: #ffffff; stroke-width: 0.8; stroke-linejoin: miter; stroke-linecap: square"/>
   </g>
   <g id="patch_211">
    <path d="M 57.6 186.624 
L 414.72 186.624 
" style="fill: none; stroke: #ffffff; stroke-width: 0.8; stroke-linejoin: miter; stroke-linecap: square"/>
   </g>
   <g id="text_20">
    <!-- Reconstruction histogram (mean embedding vector) - 2 DAFX -->
    <g style="fill: #262626" transform="translate(50.668125 180.624) scale(0.12 -0.12)">
     <defs>
      <path id="DejaVuSans-52" d="M 2841 2188 
Q 3044 2119 3236 1894 
Q 3428 1669 3622 1275 
L 4263 0 
L 3584 0 
L 2988 1197 
Q 2756 1666 2539 1819 
Q 2322 1972 1947 1972 
L 1259 1972 
L 1259 0 
L 628 0 
L 628 4666 
L 2053 4666 
Q 2853 4666 3247 4331 
Q 3641 3997 3641 3322 
Q 3641 2881 3436 2590 
Q 3231 2300 2841 2188 
z
M 1259 4147 
L 1259 2491 
L 2053 2491 
Q 2509 2491 2742 2702 
Q 2975 2913 2975 3322 
Q 2975 3731 2742 3939 
Q 2509 4147 2053 4147 
L 1259 4147 
z
" transform="scale(0.015625)"/>
     </defs>
     <use xlink:href="#DejaVuSans-52"/>
     <use xlink:href="#DejaVuSans-65" x="64.982422"/>
     <use xlink:href="#DejaVuSans-63" x="126.505859"/>
     <use xlink:href="#DejaVuSans-6f" x="181.486328"/>
     <use xlink:href="#DejaVuSans-6e" x="242.667969"/>
     <use xlink:href="#DejaVuSans-73" x="306.046875"/>
     <use xlink:href="#DejaVuSans-74" x="358.146484"/>
     <use xlink:href="#DejaVuSans-72" x="397.355469"/>
     <use xlink:href="#DejaVuSans-75" x="438.46875"/>
     <use xlink:href="#DejaVuSans-63" x="501.847656"/>
     <use xlink:href="#DejaVuSans-74" x="556.828125"/>
     <use xlink:href="#DejaVuSans-69" x="596.037109"/>
     <use xlink:href="#DejaVuSans-6f" x="623.820312"/>
     <use xlink:href="#DejaVuSans-6e" x="685.001953"/>
     <use xlink:href="#DejaVuSans-20" x="748.380859"/>
     <use xlink:href="#DejaVuSans-68" x="780.167969"/>
     <use xlink:href="#DejaVuSans-69" x="843.546875"/>
     <use xlink:href="#DejaVuSans-73" x="871.330078"/>
     <use xlink:href="#DejaVuSans-74" x="923.429688"/>
     <use xlink:href="#DejaVuSans-6f" x="962.638672"/>
     <use xlink:href="#DejaVuSans-67" x="1023.820312"/>
     <use xlink:href="#DejaVuSans-72" x="1087.296875"/>
     <use xlink:href="#DejaVuSans-61" x="1128.410156"/>
     <use xlink:href="#DejaVuSans-6d" x="1189.689453"/>
     <use xlink:href="#DejaVuSans-20" x="1287.101562"/>
     <use xlink:href="#DejaVuSans-28" x="1318.888672"/>
     <use xlink:href="#DejaVuSans-6d" x="1357.902344"/>
     <use xlink:href="#DejaVuSans-65" x="1455.314453"/>
     <use xlink:href="#DejaVuSans-61" x="1516.837891"/>
     <use xlink:href="#DejaVuSans-6e" x="1578.117188"/>
     <use xlink:href="#DejaVuSans-20" x="1641.496094"/>
     <use xlink:href="#DejaVuSans-65" x="1673.283203"/>
     <use xlink:href="#DejaVuSans-6d" x="1734.806641"/>
     <use xlink:href="#DejaVuSans-62" x="1832.21875"/>
     <use xlink:href="#DejaVuSans-65" x="1895.695312"/>
     <use xlink:href="#DejaVuSans-64" x="1957.21875"/>
     <use xlink:href="#DejaVuSans-64" x="2020.695312"/>
     <use xlink:href="#DejaVuSans-69" x="2084.171875"/>
     <use xlink:href="#DejaVuSans-6e" x="2111.955078"/>
     <use xlink:href="#DejaVuSans-67" x="2175.333984"/>
     <use xlink:href="#DejaVuSans-20" x="2238.810547"/>
     <use xlink:href="#DejaVuSans-76" x="2270.597656"/>
     <use xlink:href="#DejaVuSans-65" x="2329.777344"/>
     <use xlink:href="#DejaVuSans-63" x="2391.300781"/>
     <use xlink:href="#DejaVuSans-74" x="2446.28125"/>
     <use xlink:href="#DejaVuSans-6f" x="2485.490234"/>
     <use xlink:href="#DejaVuSans-72" x="2546.671875"/>
     <use xlink:href="#DejaVuSans-29" x="2587.785156"/>
     <use xlink:href="#DejaVuSans-20" x="2626.798828"/>
     <use xlink:href="#DejaVuSans-2d" x="2658.585938"/>
     <use xlink:href="#DejaVuSans-20" x="2694.669922"/>
     <use xlink:href="#DejaVuSans-32" x="2726.457031"/>
     <use xlink:href="#DejaVuSans-20" x="2790.080078"/>
     <use xlink:href="#DejaVuSans-44" x="2821.867188"/>
     <use xlink:href="#DejaVuSans-41" x="2897.119141"/>
     <use xlink:href="#DejaVuSans-46" x="2965.527344"/>
     <use xlink:href="#DejaVuSans-58" x="3023.046875"/>
    </g>
   </g>
  </g>
 </g>
 <defs>
  <clipPath id="p9223fb1570">
   <rect x="57.6" y="41.472" width="357.12" height="120.96"/>
  </clipPath>
  <clipPath id="p50e79482ed">
   <rect x="57.6" y="186.624" width="357.12" height="120.96"/>
  </clipPath>
 </defs>
</svg>
